<svg xmlns="http://www.w3.org/2000/svg" width="120" height="120" viewBox="0 0 120 120">
  <g id="Grupo_53577" data-name="Grupo 53577" transform="translate(-205.874 -3896.773)">
    <rect id="Rectángulo_5752" data-name="Rectángulo 5752" width="120" height="120" transform="translate(205.874 3896.772)" fill="#e7eefa" opacity="0"/>
    <g id="Grupo_53576" data-name="Grupo 53576">
      <path id="Trazado_100071" data-name="Trazado 100071" d="M316.318,3969.63a52.061,52.061,0,0,1-100.889,0,52.365,52.365,0,0,0,0-25.715,52.068,52.068,0,0,1,50.445-39.189c26.8,0,45.571,20.012,50.444,39.189a52.4,52.4,0,0,0,0,25.715Z" fill="#89ace8"/>
      <path id="Trazado_100072" data-name="Trazado 100072" d="M317.92,3956.772a52.089,52.089,0,0,1-1.755,13.438c-8.149,12.81-27.6,21.827-50.291,21.827s-42.143-9.017-50.292-21.827a52.321,52.321,0,0,1,0-26.875c8.149-12.809,27.6-21.827,50.292-21.827s42.142,9.018,50.291,21.827A52.089,52.089,0,0,1,317.92,3956.772Z" fill="#ea9b58"/>
      <path id="Trazado_100073" data-name="Trazado 100073" d="M316.165,3943.335a52.321,52.321,0,0,1,0,26.875c-8.149,12.81-27.6,21.827-50.291,21.827a78.3,78.3,0,0,1-26.141-4.336,51.824,51.824,0,0,1-8.583-18.071,52.4,52.4,0,0,0,0-25.715,51.824,51.824,0,0,1,8.583-18.071,78.3,78.3,0,0,1,26.141-4.336C288.57,3921.508,308.016,3930.526,316.165,3943.335Z" fill="#f6a96c"/>
      <path id="Trazado_100074" data-name="Trazado 100074" d="M317.92,3956.772a52.856,52.856,0,0,1-.275,5.382c-7.673,11.234-27.954,19.261-51.771,19.261s-44.1-8.027-51.771-19.261a52.6,52.6,0,0,1,0-10.763c7.673-11.234,27.953-19.261,51.771-19.261s44.1,8.027,51.771,19.261A52.846,52.846,0,0,1,317.92,3956.772Z" fill="#aef7ff"/>
      <path id="Trazado_100075" data-name="Trazado 100075" d="M265.874,3981.415a90.51,90.51,0,0,1-33-5.83,52.211,52.211,0,0,1,0-37.625,90.515,90.515,0,0,1,33-5.83c23.817,0,44.1,8.027,51.771,19.261a52.788,52.788,0,0,1,0,10.763C309.972,3973.388,289.691,3981.415,265.874,3981.415Z" fill="#d2fcff"/>
      <path id="Trazado_100076" data-name="Trazado 100076" d="M287.773,3956.772a21.9,21.9,0,1,1-21.9-21.9A21.9,21.9,0,0,1,287.773,3956.772Z" fill="#12263f"/>
      <path id="Trazado_100077" data-name="Trazado 100077" d="M287.773,3956.772a21.907,21.907,0,0,1-16.629,21.26,21.9,21.9,0,0,1,0-42.519A21.907,21.907,0,0,1,287.773,3956.772Z" fill="#00348d"/>
      <path id="Trazado_100078" data-name="Trazado 100078" d="M273.787,3956.772a7.913,7.913,0,1,1-7.913-7.912A7.913,7.913,0,0,1,273.787,3956.772Z" fill="#12263f"/>
      <path id="Trazado_100079" data-name="Trazado 100079" d="M277.558,3950.877a5.789,5.789,0,1,1-5.789-5.788A5.789,5.789,0,0,1,277.558,3950.877Z" fill="#89ace8"/>
    </g>
  </g>
</svg>
