<svg xmlns="http://www.w3.org/2000/svg" width="120" height="120" viewBox="0 0 120 120">
  <g id="Grupo_53590" data-name="Grupo 53590" transform="translate(-206.264 -4434.206)">
    <rect id="Rectángulo_5754" data-name="Rectángulo 5754" width="120" height="120" transform="translate(206.264 4434.206)" fill="#e7eefa" opacity="0"/>
    <g id="Grupo_53589" data-name="Grupo 53589">
      <path id="Trazado_100096" data-name="Trazado 100096" d="M319.473,4493.4a53.218,53.218,0,0,1-85.037,43.457.608.608,0,0,1-.139-.152,53.471,53.471,0,0,0-13.087-14.243.593.593,0,0,1-.138-.15,53.217,53.217,0,1,1,98.4-28.912Z" fill="#89ace8"/>
      <path id="Trazado_100097" data-name="Trazado 100097" d="M300.909,4511.251H288.193a3.175,3.175,0,0,0-3.1,2.559,18.715,18.715,0,0,1-18.319,14.9H253.244a3.152,3.152,0,0,0-2.618,1.4,15.569,15.569,0,0,1-12.952,6.915h-1.04a15.772,15.772,0,0,1-2.177-.154,53.507,53.507,0,0,1-13.388-14.567c-.016-.288-.025-.577-.025-.869V4510h.019c0-.1.008-.205.012-.308a9.355,9.355,0,0,1,2.307-16.706,1.006,1.006,0,0,0,.617-1.335,9.358,9.358,0,0,1,8.686-12.831h.01a1.029,1.029,0,0,0,1.029-1.028v-.012a9.355,9.355,0,0,1,13.434-8.418,1.016,1.016,0,0,0,1.329-.412,9.351,9.351,0,0,1,14.678-1.978,1,1,0,0,0,1.4,0,9.351,9.351,0,0,1,14.678,1.978,1.017,1.017,0,0,0,1.33.412,9.355,9.355,0,0,1,13.434,8.418v.012a1.027,1.027,0,0,0,1.028,1.028h.011a9.354,9.354,0,0,1,8.633,12.956,1,1,0,0,0,.582,1.323,9.356,9.356,0,0,1,6.167,8.728A9.51,9.51,0,0,1,300.909,4511.251Z" fill="#f579a8"/>
      <path id="Trazado_100098" data-name="Trazado 100098" d="M308.852,4507.094a9.343,9.343,0,0,1-7.778,4.157H289.641a11.446,11.446,0,0,1-11.433-11.433,2.079,2.079,0,0,1,4.158,0,7.283,7.283,0,0,0,7.275,7.276h10.908a7.286,7.286,0,0,0-7.166-6.028,2.079,2.079,0,1,1,0-4.158,11.448,11.448,0,0,1,11.363,10.186Zm-32.479,4.5a11.357,11.357,0,0,0-5.045,1.212,11.45,11.45,0,0,0-11-8.314,2.078,2.078,0,0,0-2.079,2.078c0,.018,0,.035,0,.052s0,.035,0,.052a7.285,7.285,0,0,1-6.475,7.23,11.441,11.441,0,0,0-10.155-6.19h-1.581a11.386,11.386,0,0,0,2.62-7.152,2.137,2.137,0,0,0-1.965-2.2,2.078,2.078,0,0,0-2.192,2.075,7.284,7.284,0,0,1-7.275,7.276h-3.785a.846.846,0,0,1-.683-.351,9.348,9.348,0,0,1,4.079-14.14.837.837,0,0,1,.316-.06H246.82a7.284,7.284,0,0,1,7.275,7.234,2.079,2.079,0,1,0,4.158.041,11.446,11.446,0,0,0-11.433-11.433h-.736a7.29,7.29,0,0,1,6.972-5.2h16.558a2.126,2.126,0,0,0,2.146-1.939,2.08,2.08,0,0,0-2.074-2.218H264.3a11.45,11.45,0,0,0-11.12-9.353,2.137,2.137,0,0,0-2.2,1.971,2.079,2.079,0,0,0,2.076,2.185,7.287,7.287,0,0,1,6.971,5.2h-6.971a11.449,11.449,0,0,0-11.24,9.354h-9.542a.832.832,0,0,1-.837-.823v-.008a9.354,9.354,0,0,1,9.355-9.354h.012a1.028,1.028,0,0,0,1.027-1.028v-.012a9.356,9.356,0,0,1,5.3-8.431,9.353,9.353,0,0,0-13.4,8.431v.012a1.028,1.028,0,0,1-1.027,1.028h-.012a9.358,9.358,0,0,0-8.686,12.83,1.006,1.006,0,0,1-.617,1.336,9.354,9.354,0,0,0-2.307,16.7c0,.1-.009.206-.012.309h-.019v11.433c0,.292.009.581.025.869a53.521,53.521,0,0,0,13.388,14.567,15.772,15.772,0,0,0,2.177.154h1.04a15.644,15.644,0,0,0,3.538-.406,15.59,15.59,0,0,1-8.6-5.39.839.839,0,0,1,.381-1.316,11.449,11.449,0,0,0,7.586-10.654,2.134,2.134,0,0,0-1.972-2.187,2.079,2.079,0,0,0-2.185,2.076,7.287,7.287,0,0,1-5.708,7.1.835.835,0,0,1-.982-.585,15.559,15.559,0,0,1-.585-4.233v-9.562h12.472a7.283,7.283,0,0,1,7.275,7.233,2.079,2.079,0,1,0,4.158.042,11.375,11.375,0,0,0-.066-1.217,11.466,11.466,0,0,0,9.2-9.038,7.288,7.288,0,0,1,5.411,6.891,11.377,11.377,0,0,0-2.6,7.244v5.683h1.767a18.855,18.855,0,0,0,2.39-.154v-5.528a7.283,7.283,0,0,1,7.276-7.275,2.078,2.078,0,0,0,2.075-2.186A2.12,2.12,0,0,0,276.373,4511.6Zm13.892-25.187a2.079,2.079,0,0,0,2.079-2.079,7.259,7.259,0,0,1,2.547-5.523,1.024,1.024,0,0,1-.884-1.013v-.012a9.332,9.332,0,0,0-.526-3.09,11.432,11.432,0,0,0-5.295,9.638A2.079,2.079,0,0,0,290.265,4486.411Zm-22.658,5.716a2.079,2.079,0,0,0,2.079,2.079,11.416,11.416,0,0,0,8.989-4.382,11.433,11.433,0,0,0,9.719,5.421,2.079,2.079,0,1,0,0-4.157,7.283,7.283,0,0,1-7.275-7.276,2.125,2.125,0,0,0-.026-.31c.015-.242.026-.484.026-.729v-13.649c-.186.076-.367.155-.546.242a1.017,1.017,0,0,1-1.33-.412,9.41,9.41,0,0,0-2.282-2.646v16.465a7.284,7.284,0,0,1-7.275,7.276A2.079,2.079,0,0,0,267.607,4492.127Z" fill="#fd3d96"/>
      <path id="Trazado_100099" data-name="Trazado 100099" d="M313.866,4460.739v5.5a12.472,12.472,0,0,1-12.472,12.472H278.536a11.075,11.075,0,0,1-10.264,6.921,1.384,1.384,0,0,1-1.384-1.385v-23.511a12.473,12.473,0,0,1,12.472-12.473h22.034A12.473,12.473,0,0,1,313.866,4460.739Z" fill="#d3f1f5"/>
      <path id="Trazado_100100" data-name="Trazado 100100" d="M272.6,4484.755a11.027,11.027,0,0,1-4.325.879,1.384,1.384,0,0,1-1.384-1.384v-23.511a12.473,12.473,0,0,1,12.472-12.473h5.612a12.473,12.473,0,0,0-12.472,12.473v23.511A1.365,1.365,0,0,0,272.6,4484.755Z" fill="#ade8f0"/>
      <path id="Trazado_100101" data-name="Trazado 100101" d="M277.489,4456.581V4454.5a1.04,1.04,0,0,1,1.039-1.04h10.394a1.04,1.04,0,0,1,1.039,1.04v2.078a1.04,1.04,0,0,1-1.039,1.04H278.528A1.04,1.04,0,0,1,277.489,4456.581Zm2.079,13.512a2.079,2.079,0,1,0,2.078,2.079A2.079,2.079,0,0,0,279.568,4470.093Zm6.236,0a2.079,2.079,0,1,0,2.079,2.079A2.079,2.079,0,0,0,285.8,4470.093Zm9.354-8.315h-16.63a1.039,1.039,0,0,0-1.039,1.039v2.079a1.04,1.04,0,0,0,1.039,1.04h16.63a1.04,1.04,0,0,0,1.039-1.04v-2.079A1.039,1.039,0,0,0,295.158,4461.778Zm-3.118,8.315a2.079,2.079,0,1,0,2.079,2.079A2.079,2.079,0,0,0,292.04,4470.093Z" fill="#2abbc7"/>
      <path id="Trazado_100102" data-name="Trazado 100102" d="M315.678,4453.463v4.158a1.039,1.039,0,0,1-1.039,1.039H308.4v6.236a1.04,1.04,0,0,1-1.04,1.04h-4.157a1.04,1.04,0,0,1-1.04-1.04v-6.236H295.93a1.039,1.039,0,0,1-1.039-1.039v-4.158a1.039,1.039,0,0,1,1.039-1.039h6.236v-6.236a1.04,1.04,0,0,1,1.04-1.04h4.157a1.04,1.04,0,0,1,1.04,1.04v6.236h6.236A1.039,1.039,0,0,1,315.678,4453.463Z" fill="#fd3d96"/>
      <path id="Trazado_100103" data-name="Trazado 100103" d="M308.4,4462.61v2.286a1.04,1.04,0,0,1-1.04,1.04h-4.157a1.04,1.04,0,0,1-1.04-1.04v-6.236H295.93a1.039,1.039,0,0,1-1.039-1.039v-4.158a1.039,1.039,0,0,1,1.039-1.039h2.287v1.871a1.039,1.039,0,0,0,1.039,1.039h5.2a1.039,1.039,0,0,1,1.039,1.039v5.2a1.04,1.04,0,0,0,1.04,1.04Z" fill="#e31e7f"/>
    </g>
  </g>
</svg>
