<svg xmlns="http://www.w3.org/2000/svg" width="120" height="120" viewBox="0 0 120 120">
  <g id="Grupo_53588" data-name="Grupo 53588" transform="translate(-206.264 -4059.262)">
    <rect id="Rectángulo_5753" data-name="Rectángulo 5753" width="120" height="120" transform="translate(206.264 4059.263)" fill="#e7eefa" opacity="0"/>
    <g id="Grupo_53587" data-name="Grupo 53587">
      <path id="Trazado_100080" data-name="Trazado 100080" d="M266.264,4068.334a50.929,50.929,0,0,0-50.929,50.929q0,1.948.145,3.862l.505,4.276a50.931,50.931,0,1,0,50.279-59.067Z" fill="#89ace8"/>
      <g id="Grupo_53579" data-name="Grupo 53579">
        <path id="Trazado_100081" data-name="Trazado 100081" d="M299.856,4071.715c-10.32-5.437-20.117-4.027-27.583,2.154a4.414,4.414,0,0,0-.141,3.38,3.565,3.565,0,0,0,2.705,1.836l23.646,53.527a4.332,4.332,0,0,0,1.346,3.309,3.673,3.673,0,0,0,3.323.368,118.8,118.8,0,0,1,6.447-11.677c11.107-17.693,11.743-41.579-9.743-52.9Z" fill="#ffc7ab"/>
        <path id="Trazado_100082" data-name="Trazado 100082" d="M298.8,4132.549l-23.739-53.738c-4.734-.894-2.244-5.371-2.238-5.383a33.576,33.576,0,0,0-9.294,12c-5.662,11.78-3.2,24.262-1.907,29.016.783,2.877,3.526,6.906,1.749,17.991-.849,5.3.5,10.582,2.428,15.016a17.8,17.8,0,0,0,17.591,10.64h0a17.844,17.844,0,0,0,15.475-11.682c1.119-3.049,2.586-6.612,4.474-10.5h0c-4.741,1.482-4.539-3.361-4.539-3.361Z" fill="#ffaa7b"/>
        <path id="Trazado_100083" data-name="Trazado 100083" d="M285.624,4085.6a22.891,22.891,0,0,0-11.6,4.126,8.659,8.659,0,0,0,1.81,2.146c5.26,4.561,8.013,9.188,5.261,13.34a3.238,3.238,0,0,1,2.893,4.531c2.39-.776,12.351-3.455,12.993,5.564.434,6.1-.395,10.87-2.3,13.814l.2.009a3.856,3.856,0,0,0,.835,2.841,3.447,3.447,0,0,0,2.912.9c.056-.108.114-.215.168-.324q2.757-5.557,6.1-10.888a45.562,45.562,0,0,0,5.335-11.967,23.311,23.311,0,0,0-.029-2.782A23,23,0,0,0,285.624,4085.6Z" fill="#fc9460"/>
        <path id="Trazado_100084" data-name="Trazado 100084" d="M295.227,4128.832l-.363-.015a6.862,6.862,0,0,1-5.526,3.627c-5.537.394-10.575-.9-11.874,6.926a9.8,9.8,0,0,1-1.342,3.715,9.622,9.622,0,0,0,6.517,1.894,15.751,15.751,0,0,0,6.186-1.978,23.755,23.755,0,0,0,9.971-10.452c-4.286.44-3.569-3.717-3.569-3.717Z" fill="#ef8152"/>
        <path id="Trazado_100085" data-name="Trazado 100085" d="M273.893,4117.191c-.253-3.549,4.275-4.96,7.631-5.517a3.266,3.266,0,0,0,2.6-2.3,21.752,21.752,0,0,1,3.176-.729c5.565-.831,9.588,1,9.989,6.639.75,10.53-2.215,17.06-7.929,17.467-5.613.4-10.34-.872-11.592,6.668a10.043,10.043,0,0,1-1.4,3.844,11.313,11.313,0,0,1-4.56-10.946c.286-1.677,1.57-2.9,3.3-3.785a4.681,4.681,0,0,0,.971-7.716,5.524,5.524,0,0,1-2.184-3.626Z" fill="#e57751"/>
        <g id="Grupo_53578" data-name="Grupo 53578">
          <path id="Trazado_100086" data-name="Trazado 100086" d="M285.7,4085.868a22.795,22.795,0,0,1,24.329,24.518,33.012,33.012,0,0,0,.679-17.758c-1.855-6.9-6.377-12.28-13.442-16a21.015,21.015,0,0,0-11.319-2.707,16.793,16.793,0,0,0-4.075.807,19.482,19.482,0,0,0-7.469,4.7c-1.207,2.555-2.571,6.913-.227,10.558A22.666,22.666,0,0,1,285.7,4085.868Z" fill="#ffaa7b"/>
        </g>
        <path id="Trazado_100087" data-name="Trazado 100087" d="M275.057,4078.811a17.6,17.6,0,0,0-1.466,3.737c-.965,3.788-.142,6.847,2.446,9.091,4.484,3.888,6.592,7.3,6.445,10.418a6.472,6.472,0,0,1-1.045,3.186,3.3,3.3,0,0,0-1.879.274,16.39,16.39,0,0,1-9.832,1.418,5.2,5.2,0,0,1-4.225-5.112,32.458,32.458,0,0,1,3.027-13.987A29.147,29.147,0,0,1,275.057,4078.811Z" fill="#ef8152"/>
      </g>
      <path id="Trazado_100088" data-name="Trazado 100088" d="M223.019,4123.125H215.48c.108,1.443.279,2.869.505,4.276h7.034a2.138,2.138,0,1,0,0-4.276Z" fill="#b85b7e"/>
      <g id="Grupo_53580" data-name="Grupo 53580">
        <path id="Trazado_100089" data-name="Trazado 100089" d="M234.521,4140.193a2.14,2.14,0,0,1-2.034-1.48l-6.973-21.54a2.138,2.138,0,0,1,4.069-1.317l6.973,21.54a2.139,2.139,0,0,1-2.035,2.8Z" fill="#b85b7e"/>
      </g>
      <g id="Grupo_53581" data-name="Grupo 53581">
        <path id="Trazado_100090" data-name="Trazado 100090" d="M248.466,4140.193a2.139,2.139,0,0,1-2.074-1.623l-6.973-28.056a2.139,2.139,0,0,1,4.151-1.032l6.973,28.056a2.138,2.138,0,0,1-2.077,2.655Z" fill="#b85b7e"/>
      </g>
      <g id="Grupo_53582" data-name="Grupo 53582">
        <path id="Trazado_100091" data-name="Trazado 100091" d="M259.972,4127.4a2.137,2.137,0,0,1-1.9-1.156l-4.529-8.749a2.138,2.138,0,1,1,3.8-1.966l4.529,8.749a2.139,2.139,0,0,1-1.9,3.122Z" fill="#b85b7e"/>
      </g>
      <g id="Grupo_53583" data-name="Grupo 53583">
        <path id="Trazado_100092" data-name="Trazado 100092" d="M223.017,4127.4a2.139,2.139,0,0,1-1.9-3.122l4.529-8.749a2.138,2.138,0,0,1,3.8,1.966l-4.529,8.749a2.137,2.137,0,0,1-1.9,1.156Z" fill="#f579a8"/>
      </g>
      <g id="Grupo_53584" data-name="Grupo 53584">
        <path id="Trazado_100093" data-name="Trazado 100093" d="M234.523,4140.193a2.138,2.138,0,0,1-2.077-2.655l6.973-28.056a2.139,2.139,0,0,1,4.151,1.032L236.6,4138.57a2.14,2.14,0,0,1-2.074,1.623Z" fill="#f579a8"/>
      </g>
      <g id="Grupo_53585" data-name="Grupo 53585">
        <path id="Trazado_100094" data-name="Trazado 100094" d="M248.468,4140.193a2.139,2.139,0,0,1-2.035-2.8l6.973-21.54a2.138,2.138,0,0,1,4.069,1.317l-6.973,21.54a2.139,2.139,0,0,1-2.034,1.48Z" fill="#f579a8"/>
      </g>
      <g id="Grupo_53586" data-name="Grupo 53586">
        <path id="Trazado_100095" data-name="Trazado 100095" d="M268.129,4127.4H259.97a2.138,2.138,0,1,1,0-4.276h8.159a2.138,2.138,0,1,1,0,4.276Z" fill="#f579a8"/>
      </g>
    </g>
  </g>
</svg>
