<svg id="Grupo_53536" data-name="Grupo 53536" xmlns="http://www.w3.org/2000/svg" width="110.44" height="110.44" viewBox="0 0 110.44 110.44">
  <rect id="Rectángulo_5737" data-name="Rectángulo 5737" width="110.44" height="110.44" transform="translate(0 0)" fill="none"/>
  <g id="Grupo_53535" data-name="Grupo 53535" transform="translate(20.197 12.809)">
    <path id="Trazado_99956" data-name="Trazado 99956" d="M273.862,2948.49v5.733h-58.5v-5.749h58.5Z" transform="translate(-209.592 -2870.434)" fill="#4e6cca"/>
    <path id="Trazado_99957" data-name="Trazado 99957" d="M279.662,2873.81v.038H260.608v-7.923h19.054Z" transform="translate(-235.115 -2823.869)" fill="#bac9db"/>
    <path id="Trazado_99958" data-name="Trazado 99958" d="M215.246,2948.613h5.171v5.688h-5.171Z" transform="translate(-209.527 -2870.513)" fill="#3d5899"/>
    <path id="Trazado_99959" data-name="Trazado 99959" d="M265.894,2873.832v-7.867h-5.172v7.929h5.172Z" transform="translate(-235.18 -2823.891)" fill="#95a2af"/>
    <path id="Trazado_99960" data-name="Trazado 99960" d="M207.91,2848.2a7.6,7.6,0,0,0,7.6,7.6h49.8a7.6,7.6,0,0,0,7.6-7.6v-.527Z" transform="translate(-205.389 -2813.574)" fill="#d4e1f4"/>
    <path id="Trazado_99961" data-name="Trazado 99961" d="M307.525,2787.955c.981.843,4.368,4.359,5.418,6.811.527,1.229,2.612,6.088-.059,10.1a9.8,9.8,0,0,1-6.073,3.9v0l-5.992.05c3.509-14.1-6.675-19.3-6.675-19.3a6.018,6.018,0,0,0,.174-.9,7.879,7.879,0,0,1,3.883-4.977l8.724-4.652a4.181,4.181,0,0,1,4.547,6.979Z" transform="translate(-254.033 -2774.548)" fill="#cae6ee"/>
    <path id="Trazado_99962" data-name="Trazado 99962" d="M266.491,2785.791a6.033,6.033,0,0,0,.174-.905,6.129,6.129,0,0,0-.486-3.186l-3.434-7.747a3.5,3.5,0,0,0-6.416,2.818l2.26,5.192a3.022,3.022,0,0,1-.326,2.977l-4.663,6.416-8.479,13.961,28.044-.228c3.509-14.1-6.675-19.3-6.675-19.3Z" transform="translate(-226.38 -2770.819)" fill="#ffc9c0"/>
    <path id="Trazado_99963" data-name="Trazado 99963" d="M236.757,2806.446a11,11,0,0,1-8.479,13.961l-3.885.03a10.98,10.98,0,1,1,12.364-13.991Z" transform="translate(-209.536 -2785.909)" fill="#fcbab1"/>
    <path id="Trazado_99964" data-name="Trazado 99964" d="M267.627,2891.58a9.632,9.632,0,0,0-9.47-7.875H217.942a9.632,9.632,0,0,0-9.47,7.875l-3.973,20.53h67.978Z" transform="translate(-203.464 -2833.898)" fill="#89ace8"/>
    <path id="Trazado_99965" data-name="Trazado 99965" d="M267.508,2889.668a11.607,11.607,0,1,1-11.606,11.608v0A11.606,11.606,0,0,1,267.508,2889.668Z" transform="translate(-232.461 -2837.262)" fill="#d4e1f4"/>
    <path id="Trazado_99966" data-name="Trazado 99966" d="M277.547,2906.387l-.028.005-1.27-.009a4.364,4.364,0,1,0,1.3,0Z" transform="translate(-241.836 -2846.691)" fill="#edb740"/>
    <path id="Trazado_99967" data-name="Trazado 99967" d="M282.1,2905.783l-1.347-7.281-1.344,7.281a1.336,1.336,0,0,0-.023.25,1.365,1.365,0,0,0,1.364,1.367h0a1.383,1.383,0,0,0,.25-.022A1.368,1.368,0,0,0,282.1,2905.783Z" transform="translate(-245.711 -2842.245)" fill="#f579a8"/>
    <path id="Trazado_99968" data-name="Trazado 99968" d="M213.177,2848.96h-5.172a7.59,7.59,0,0,0,7.559,7.585h5.171A7.59,7.59,0,0,1,213.177,2848.96Z" transform="translate(-205.442 -2814.299)" fill="#acbacc"/>
    <path id="Trazado_99969" data-name="Trazado 99969" d="M223.113,2883.76h-5.171a9.647,9.647,0,0,0-9.47,7.895L204.5,2912.2h5.171l3.973-20.547A9.648,9.648,0,0,1,223.113,2883.76Z" transform="translate(-203.464 -2833.929)" fill="#38a2c6"/>
    <path id="Trazado_99970" data-name="Trazado 99970" d="M261.063,2901.27a11.608,11.608,0,0,1,9.021-11.313,11.607,11.607,0,1,0,0,22.628A11.61,11.61,0,0,1,261.063,2901.27Z" transform="translate(-232.451 -2837.258)" fill="#afbdce"/>
    <g id="Grupo_53534" data-name="Grupo 53534">
      <path id="Trazado_99971" data-name="Trazado 99971" d="M267.3,2826.912a10.669,10.669,0,0,0-10.482-8.7h-9.112v-5.509h14.337a8.644,8.644,0,0,0,8.636-8.635v-.528a1.034,1.034,0,0,0-1.034-1.035h-.009l-9.923.081a9.4,9.4,0,0,0,2.124-2.256c2.463-3.7,1.441-8.067.149-11.08a19.209,19.209,0,0,0-2.9-4.271c-.581-.681-1.181-1.332-1.7-1.865l2.82-1.444a5.216,5.216,0,0,0-5.673-8.705l-8.724,4.652a8.508,8.508,0,0,0-2.866,2.461c-.024-.059-.046-.118-.072-.175l-3.434-7.748a4.538,4.538,0,1,0-8.31,3.651l2.26,5.191a1.991,1.991,0,0,1-.215,1.957l-3.559,4.9a12,12,0,1,0-17.662,15.124l-7.313.06a1.035,1.035,0,0,0-1.026,1.034,8.645,8.645,0,0,0,8.636,8.635h14.337v5.508H216.6a10.667,10.667,0,0,0-10.485,8.714l-3.973,20.531a1.035,1.035,0,0,0,.819,1.212,1.016,1.016,0,0,0,.2.019h3.7v4.542a1.034,1.034,0,0,0,1.034,1.034h58.5a1.034,1.034,0,0,0,1.034-1.034v-4.542h3.706a1.035,1.035,0,0,0,1.007-1.272Zm-23.877-43.177a6.871,6.871,0,0,1,3.358-4.29l8.722-4.652a3.147,3.147,0,0,1,3.5,5.193l-6.449,3.25a1.034,1.034,0,1,0,.918,1.854l.013-.007,1.955-.985c1.269,1.237,3.819,4.045,4.645,5.972,1.09,2.542,1.98,6.188.03,9.119a8.692,8.692,0,0,1-5.341,3.442l-4.57.037c1.381-6.943-.536-11.677-2.461-14.476a15.984,15.984,0,0,0-4.344-4.287C243.409,2783.849,243.417,2783.792,243.425,2783.735Zm-12.949,6.452,4.37-6.014a4.068,4.068,0,0,0,.438-4l-2.259-5.193a2.469,2.469,0,0,1,4.521-1.987l3.434,7.748a5.1,5.1,0,0,1-.051,4.244l-3.642,7.715a1.034,1.034,0,0,0,1.863.9l.007-.016,2.871-6.083,1.313,4.685a1.034,1.034,0,0,0,2-.539l-.006-.02-1.284-4.581a14.278,14.278,0,0,1,1.989,2.316c2.5,3.63,3.185,8.108,2.05,13.32l-22.178.18a12.038,12.038,0,0,0,4.566-12.678Zm-21.577,2.958a9.939,9.939,0,1,1,11.852,9.762l-3.672.03A10.018,10.018,0,0,1,208.9,2793.146Zm3.349,17.494a6.578,6.578,0,0,1-6.487-5.541l62.829-.51a6.576,6.576,0,0,1-6.546,6.051Zm33.392,2.068v5.508H228.653v-5.508Zm19.723,39.492H208.93v-3.507h56.433Zm-60.948-5.576,3.735-19.309a8.6,8.6,0,0,1,8.453-7.03h40.216a8.6,8.6,0,0,1,8.453,7.03c0,.017.007.033.01.049l4.549,19.26Z" transform="translate(-202.126 -2769.444)" fill="#00348d"/>
      <path id="Trazado_99972" data-name="Trazado 99972" d="M266.17,2887.294a12.641,12.641,0,1,0,12.641,12.641h0a12.655,12.655,0,0,0-12.641-12.641Zm10.354,13.96h.133a10.533,10.533,0,0,1-2.386,5.465l-.1-.1a1.034,1.034,0,0,0-1.462,1.462l.084.083a10.519,10.519,0,0,1-5.742,2.3v-.1a1.034,1.034,0,0,0-2.068,0v.069a10.517,10.517,0,0,1-5.5-2.317l.039-.039a1.034,1.034,0,0,0-1.463-1.462l-.044.044a10.53,10.53,0,0,1-2.339-5.411h.043a1.034,1.034,0,1,0,0-2.068h-.1a10.516,10.516,0,0,1,2.312-5.875l.07.07a1.034,1.034,0,1,0,1.488-1.437l-.026-.025-.085-.085a10.528,10.528,0,0,1,5.6-2.4v.212a1.034,1.034,0,0,0,2.069,0v-.241a10.529,10.529,0,0,1,5.847,2.384l-.132.132a1.034,1.034,0,0,0,1.437,1.488l.025-.025.127-.127a10.528,10.528,0,0,1,2.357,5.933h-.19a1.034,1.034,0,1,0,0,2.068Z" transform="translate(-231.122 -2835.923)" fill="#00348d"/>
      <path id="Trazado_99973" data-name="Trazado 99973" d="M277.066,2899.739l-.511-2.765a1.034,1.034,0,0,0-2.034,0l-.511,2.766a5.4,5.4,0,0,0,.711,10.516,5.5,5.5,0,0,0,.83.063,5.4,5.4,0,0,0,1.516-10.581Zm-1.857,4.893.329-1.777.327,1.777a.334.334,0,0,1-.268.389.358.358,0,0,1-.061.005.334.334,0,0,1-.334-.333.365.365,0,0,1,.006-.062Zm3.623.792a3.332,3.332,0,1,1-5.284-3.18l-.372,2.014a2.4,2.4,0,1,0,4.725,0l-.371-2.009a3.336,3.336,0,0,1,1.3,3.175Z" transform="translate(-240.49 -2840.906)" fill="#00348d"/>
      <path id="Trazado_99974" data-name="Trazado 99974" d="M225.182,2893.9a1.035,1.035,0,0,0-1.034,1.034v.407a1.034,1.034,0,0,0,2.069,0v-.407A1.035,1.035,0,0,0,225.182,2893.9Z" transform="translate(-214.548 -2839.651)" fill="#00348d"/>
      <path id="Trazado_99975" data-name="Trazado 99975" d="M225.182,2901.638a1.034,1.034,0,0,0-1.034,1.035v10.463a1.034,1.034,0,0,0,2.069,0v-10.463A1.034,1.034,0,0,0,225.182,2901.638Z" transform="translate(-214.548 -2844.014)" fill="#00348d"/>
    </g>
  </g>
</svg>
