<svg xmlns="http://www.w3.org/2000/svg" width="120" height="120" viewBox="0 0 120 120">
  <g id="Grupo_53570" data-name="Grupo 53570" transform="translate(-205.246 -3313.966)">
    <rect id="Rectángulo_5749" data-name="Rectángulo 5749" width="120" height="120" transform="translate(205.246 3313.966)" fill="#e7eefa" opacity="0"/>
    <g id="Grupo_53569" data-name="Grupo 53569">
      <path id="Trazado_100034" data-name="Trazado 100034" d="M319.089,3373.966q0,.891-.029,1.775c-.008.24-.87-.169-.881.07a47.319,47.319,0,0,1-.6,5.2c-.061.4.78,1.781.711,2.182a53.265,53.265,0,1,1,.8-9.224Z" fill="#89ace8"/>
      <path id="Trazado_100035" data-name="Trazado 100035" d="M306.528,3365.991a36.585,36.585,0,1,1-36.585-36.585,36.586,36.586,0,0,1,36.585,36.585Z" fill="#40c1fa"/>
      <path id="Trazado_100036" data-name="Trazado 100036" d="M317.8,3374.484a53.4,53.4,0,0,1-.768,7.45,2.068,2.068,0,0,1-.231-.356l-7.466-14.093-6.622,16.554a2.079,2.079,0,0,1-3.86,0l-4.157-10.394a2.079,2.079,0,0,1,3.86-1.544l2.228,5.569,6.384-15.962a2.079,2.079,0,0,1,3.779-.179Z" fill="#b4e7fd"/>
      <path id="Trazado_100037" data-name="Trazado 100037" d="M296.375,3381.668c-4.218,10.181-23.073,25.4-34,32.292a7.486,7.486,0,0,1-7.992,0c-10.924-6.894-29.78-22.111-34-32.292-13.86-33.456,21.176-44.951,37.993-28.933C275.2,3336.717,310.235,3348.212,296.375,3381.668Z" fill="#f579a8"/>
      <path id="Trazado_100038" data-name="Trazado 100038" d="M274.762,3405.064a145.764,145.764,0,0,1-12.384,8.9,7.486,7.486,0,0,1-7.992,0c-10.924-6.894-29.78-22.111-34-32.292-6.5-15.683-2.25-26.54,5.828-32-.329,12.808,5.579,27.27,17.084,38.775C252.659,3397.8,263.973,3403.456,274.762,3405.064Z" fill="#b85b7e"/>
      <path id="Trazado_100039" data-name="Trazado 100039" d="M290.056,3370.429c-4.022,2.561-19.063-9.868-17.284-14.421,1.068-2.735,8.771-4.063,14.011-.1,5.726,4.329,5.791,12.919,3.273,14.523Z" fill="#f9afcb"/>
      <path id="Trazado_100040" data-name="Trazado 100040" d="M250.9,3374.581a5.2,5.2,0,1,1-5.2-5.2A5.2,5.2,0,0,1,250.9,3374.581Z" fill="#af2727"/>
      <path id="Trazado_100041" data-name="Trazado 100041" d="M245.434,3374.8a2.079,2.079,0,0,1-2.7-1.158l-2.227-5.568-6.385,15.962a2.077,2.077,0,0,1-1.832,1.3l-.1,0a2.078,2.078,0,0,1-1.848-1.129l-5.656-11h-11.2a2.079,2.079,0,1,1,0-4.158h12.472a2.081,2.081,0,0,1,1.849,1.128l4.15,8.071,6.622-16.553a2.078,2.078,0,0,1,3.86,0l4.158,10.393a2.079,2.079,0,0,1-1.159,2.7Z" fill="#d5f1fe"/>
      <path id="Trazado_100042" data-name="Trazado 100042" d="M295.894,3392.489v8.762a2.079,2.079,0,0,1-2.079,2.078h-9.226v9.226a2.079,2.079,0,0,1-2.078,2.079h-8.762a2.079,2.079,0,0,1-2.079-2.079v-9.226h-9.225a2.078,2.078,0,0,1-2.079-2.078v-8.762a2.078,2.078,0,0,1,2.079-2.078h9.225v-9.226a2.079,2.079,0,0,1,2.079-2.079h8.762a2.079,2.079,0,0,1,2.078,2.079v9.226h9.226A2.079,2.079,0,0,1,295.894,3392.489Zm-26.548-63.632-1.619-2.96a.348.348,0,0,0-.611,0l-1.619,2.96a.344.344,0,0,1-.139.139l-2.96,1.619a.348.348,0,0,0,0,.611l2.96,1.619a.345.345,0,0,1,.139.139l1.619,2.96a.348.348,0,0,0,.611,0l1.619-2.96a.345.345,0,0,1,.139-.139l2.96-1.619a.348.348,0,0,0,0-.611l-2.96-1.619A.344.344,0,0,1,269.346,3328.857Z" fill="#fff5f5"/>
      <path id="Trazado_100043" data-name="Trazado 100043" d="M275.714,3390.411H271.67v-9.226a2.079,2.079,0,0,1,2.079-2.079h6.123a2.079,2.079,0,0,0-2.079,2.079v7.147A2.079,2.079,0,0,1,275.714,3390.411Zm-7.146,0h-6.123a2.079,2.079,0,0,0-2.079,2.078v8.762a2.079,2.079,0,0,0,2.079,2.078h6.123a2.079,2.079,0,0,1-2.079-2.078v-8.762A2.079,2.079,0,0,1,268.568,3390.411Zm9.225,22.144v-7.147a2.079,2.079,0,0,0-2.079-2.079H271.67v9.226a2.079,2.079,0,0,0,2.079,2.079h6.123A2.079,2.079,0,0,1,277.793,3412.555Z" fill="#d5f1fe"/>
      <path id="Trazado_100044" data-name="Trazado 100044" d="M253.1,3338.1l-2.961,1.62a.353.353,0,0,0-.138.138l-1.619,2.961a.349.349,0,0,1-.611,0l-1.619-2.961a.355.355,0,0,0-.139-.138l-2.961-1.62a.348.348,0,0,1,0-.61l2.961-1.62a.354.354,0,0,0,.139-.138l1.619-2.961a.349.349,0,0,1,.611,0l1.619,2.961a.352.352,0,0,0,.138.138l2.961,1.62A.348.348,0,0,1,253.1,3338.1Z" fill="#00348d"/>
    </g>
  </g>
</svg>
