<svg xmlns="http://www.w3.org/2000/svg" width="120" height="120" viewBox="0 0 120 120">
  <g id="Grupo_53575" data-name="Grupo 53575" transform="translate(-205.874 -3597.251)">
    <rect id="Rectángulo_5751" data-name="Rectángulo 5751" width="120" height="120" transform="translate(205.874 3597.251)" fill="#e7eefa" opacity="0"/>
    <g id="Grupo_53574" data-name="Grupo 53574">
      <path id="Trazado_100062" data-name="Trazado 100062" d="M319.539,3657.386a53.037,53.037,0,0,1-53.038,53.037c-.668,0-1.335-.013-2-.036a53.039,53.039,0,0,1-51.039-53,53.429,53.429,0,0,1,.559-7.721v0a53.04,53.04,0,0,1,105.515,7.723Z" fill="#89ace8"/>
      <path id="Trazado_100063" data-name="Trazado 100063" d="M275.935,3633.169s-4.352-17.889,11.185-29.091l11.021,11.021s-12.778,2.243-15.347,18.044" fill="#914d3d"/>
      <path id="Trazado_100064" data-name="Trazado 100064" d="M291.219,3608.177l-4.1-4.1c-15.537,11.2-11.185,29.091-11.185,29.091l4.332-.016C280.136,3632.593,276.465,3619.184,291.219,3608.177Z" fill="#773c30"/>
      <path id="Trazado_100065" data-name="Trazado 100065" d="M241.9,3661.9c.03.116.061.231.09.347l.005.016c3.972,15.224,14.428,28.859,26.156,28.859a13.953,13.953,0,0,0,5.142-.984,16.841,16.841,0,0,1,12.349,0,13.952,13.952,0,0,0,5.141.984c22.9,0,40.957-52,15.359-66.282-12.432-6.936-22.9,4.368-26.674,4.368s-14.241-11.3-26.675-4.368C240.406,3631.747,238.239,3647.489,241.9,3661.9Z" fill="#f9c94c"/>
      <path id="Trazado_100066" data-name="Trazado 100066" d="M287.456,3690.714a13.718,13.718,0,0,0,3.324.4c22.9,0,40.956-52,15.359-66.282a17.179,17.179,0,0,0-13.95-1.378,8.876,8.876,0,0,1,1.663,1.378C306.946,3638.381,298.863,3685.852,287.456,3690.714Z" fill="#ef9b1a"/>
      <path id="Trazado_100067" data-name="Trazado 100067" d="M247.853,3653.085s4.352-17.889-11.186-29.091l-11.02,11.021s12.778,2.243,15.346,18.044" fill="#773c30"/>
      <path id="Trazado_100068" data-name="Trazado 100068" d="M232.568,3628.093l4.1-4.1c15.538,11.2,11.185,29.091,11.185,29.091l-4.332-.017C243.651,3652.509,247.322,3639.1,232.568,3628.093Z" fill="#914d3d"/>
      <path id="Trazado_100069" data-name="Trazado 100069" d="M281.891,3681.814c-.03.114-.06.229-.089.346l-.006.015c-3.085,11.824-10.082,22.691-18.548,26.956a53.08,53.08,0,0,1-50.48-60.724,22.465,22.465,0,0,1,4.882-3.654c12.431-6.936,22.9,4.368,26.671,4.368s14.243-11.3,26.677-4.368C283.382,3651.663,285.55,3667.405,281.891,3681.814Z" fill="#f579a8"/>
      <path id="Trazado_100070" data-name="Trazado 100070" d="M229.934,3644.753c-8.278,8.564-8.09,30.69-3.952,47.031a52.836,52.836,0,0,1-13.773-35.654,53.43,53.43,0,0,1,.559-7.721v0a22.465,22.465,0,0,1,4.882-3.654,17.172,17.172,0,0,1,13.949-1.379A9,9,0,0,0,229.934,3644.753Z" fill="#ea416f"/>
    </g>
  </g>
</svg>
