<svg xmlns="http://www.w3.org/2000/svg" width="120" height="120" viewBox="0 0 120 120">
  <g id="Grupo_53592" data-name="Grupo 53592" transform="translate(-206.264 -4239.489)">
    <rect id="Rectángulo_5755" data-name="Rectángulo 5755" width="120" height="120" transform="translate(206.264 4239.489)" fill="#e7eefa" opacity="0"/>
    <g id="Grupo_53591" data-name="Grupo 53591">
      <path id="Trazado_100104" data-name="Trazado 100104" d="M319.446,4299.489a52.075,52.075,0,0,1-71.885,48.132,7.766,7.766,0,0,0-7.765-7.765h-5.253a52.047,52.047,0,1,1,84.9-40.367Z" fill="#89ace8"/>
      <path id="Trazado_100105" data-name="Trazado 100105" d="M317.321,4314.307a52.113,52.113,0,0,1-69.76,33.314,7.766,7.766,0,0,0-7.765-7.765h-5.253a51.979,51.979,0,0,1-18.754-33.6H317.321Z" fill="#5766ce"/>
      <path id="Trazado_100106" data-name="Trazado 100106" d="M279.174,4287.6l-13.243,34.763a4.881,4.881,0,0,1-9.4-1.133l-1.265-10.118a24.3,24.3,0,0,0-2.2-9.046,4.886,4.886,0,0,0-8.73,0c-1.657,3.352-2.164,8.756-2.164,8.756l-1.3,10.409a4.881,4.881,0,0,1-9.4,1.132L218.22,4287.6a27.8,27.8,0,0,1-.991-16.637l2.624-10.5a9.265,9.265,0,0,1,11.072-6.781l4.922,1.136a9.258,9.258,0,0,0,5.692-.521,18.064,18.064,0,0,1,14.316,0,9.261,9.261,0,0,0,5.693.521l4.921-1.136a9.266,9.266,0,0,1,11.073,6.781l2.623,10.5A27.8,27.8,0,0,1,279.174,4287.6Z" fill="#ececf1"/>
      <path id="Trazado_100107" data-name="Trazado 100107" d="M264.46,4324.4h0a4.883,4.883,0,0,1-7.933-3.176l-1.265-10.118a24.319,24.319,0,0,0-2.2-9.046,4.924,4.924,0,0,0-4.318-2.69c3.42-.673,9.273.337,10.5,2.69a24.319,24.319,0,0,1,2.2,9.046l1.265,10.118A4.881,4.881,0,0,0,264.46,4324.4ZM226.226,4287.6a27.8,27.8,0,0,1-.991-16.637l2.624-10.5a9.247,9.247,0,0,1,5.319-6.261l-2.253-.52a9.265,9.265,0,0,0-11.072,6.781l-2.624,10.5a27.8,27.8,0,0,0,.991,16.637l13.243,34.762a4.881,4.881,0,0,0,8.563,1.057,4.866,4.866,0,0,1-.557-1.057Z" fill="#d3d3d8"/>
      <path id="Trazado_100108" data-name="Trazado 100108" d="M263.907,4288.079c-2.825-2.535-.06-6.616-1.108-14.333-.7-5.173-2.379-6.609-1.177-8.744,1.439-2.557,5.767-3.779,8.647-2.471,5.511,2.5,4.018,13.312,3.861,14.361-.8,5.325-3.941,12.259-7.675,12.269a3.973,3.973,0,0,1-2.548-1.082Z" fill="#fff5f5"/>
      <path id="Trazado_100109" data-name="Trazado 100109" d="M246.064,4342.94l-4.213-4.213,33.7-33.7,4.213,4.213Z" fill="#58aacb"/>
      <path id="Trazado_100110" data-name="Trazado 100110" d="M264.757,4322.314a5.735,5.735,0,0,1,0,8.111l-17.2,17.2a52.016,52.016,0,0,1-13.018-7.765l19.823-19.822a5.735,5.735,0,0,1,8.111,0Z" fill="#d3d3d8"/>
      <path id="Trazado_100111" data-name="Trazado 100111" d="M265.764,4323.671a5.738,5.738,0,0,1-1.007,6.754l-17.2,17.2a51.874,51.874,0,0,1-7.6-3.9l19.047-19.047A5.738,5.738,0,0,1,265.764,4323.671Z" fill="#ececf1"/>
      <path id="Trazado_100112" data-name="Trazado 100112" d="M258.983,4336.2l-10.392-10.391,5.775-5.775a5.735,5.735,0,0,1,8.111,0l2.28,2.28a5.736,5.736,0,0,1,0,8.112Z" fill="#7fbed7"/>
      <path id="Trazado_100113" data-name="Trazado 100113" d="M264.757,4330.425l-5.774,5.774-5.747-5.747,5.774-5.774a4.248,4.248,0,1,1,5.747,5.747Z" fill="#a6d2e3"/>
      <path id="Trazado_100114" data-name="Trazado 100114" d="M312.767,4315.556a30.782,30.782,0,1,1,0-43.532A30.781,30.781,0,0,1,312.767,4315.556Z" fill="#7fbed7"/>
      <path id="Trazado_100115" data-name="Trazado 100115" d="M312.913,4315.409a30.663,30.663,0,0,1-19.7,9.084,2.979,2.979,0,0,1-.438-5.942,24.824,24.824,0,0,0,0-49.522,2.979,2.979,0,0,1,.438-5.942,30.783,30.783,0,0,1,19.7,52.322Z" fill="#a6d2e3"/>
      <path id="Trazado_100116" data-name="Trazado 100116" d="M308.554,4276.237a24.825,24.825,0,1,1-35.107,0,24.826,24.826,0,0,1,35.107,0Z" fill="#2b3894"/>
      <path id="Trazado_100117" data-name="Trazado 100117" d="M308.554,4311.343a24.7,24.7,0,0,1-12.077,6.663,24.828,24.828,0,0,1,0-48.432,24.828,24.828,0,0,1,12.077,41.769Z" fill="#3342ae"/>
      <path id="Trazado_100118" data-name="Trazado 100118" d="M311.182,4293.79A20.182,20.182,0,1,1,291,4273.609a20.182,20.182,0,0,1,20.182,20.181Z" fill="#ff7bac"/>
      <path id="Trazado_100119" data-name="Trazado 100119" d="M304.809,4293.79A13.809,13.809,0,1,1,291,4279.982a13.809,13.809,0,0,1,13.809,13.808Z" fill="#ff50b5"/>
      <path id="Trazado_100120" data-name="Trazado 100120" d="M303.671,4299.287a13.811,13.811,0,1,1-18.167-18.168,13.815,13.815,0,0,0,18.167,18.168Z" fill="#ff2ea6"/>
      <path id="Trazado_100121" data-name="Trazado 100121" d="M292.609,4306.258a1.611,1.611,0,1,1-1.611-1.611A1.612,1.612,0,0,1,292.609,4306.258Zm-1.588-28.756a1.593,1.593,0,0,0-1.593,1.593v20.624a1.593,1.593,0,0,0,3.186,0V4279.1a1.593,1.593,0,0,0-1.593-1.593Z" fill="#f5f0eb"/>
    </g>
  </g>
</svg>
