<svg xmlns="http://www.w3.org/2000/svg" width="120" height="120" viewBox="0 0 120 120">
  <g id="Grupo_53673" data-name="Grupo 53673" transform="translate(-617.887 -4627.261)">
    <rect id="Rectángulo_5775" data-name="Rectángulo 5775" width="120" height="120" transform="translate(617.887 4627.261)" fill="#e7eefa" opacity="0"/>
    <g id="Grupo_53671" data-name="Grupo 53671">
      <path id="Trazado_100203" data-name="Trazado 100203" d="M730.778,4687.076a51.56,51.56,0,0,1-12.844,34.126c-.112.128-1.093.268-1.207.4-.677.757-.985,1.218-1.706,1.933-.149.149.178.559.027.705a51.756,51.756,0,0,1-72.053,0c-.143-.139.165-.577.023-.717-.713-.708-.913-1-1.584-1.753-.127-.142-1.2-.418-1.324-.563a51.756,51.756,0,1,1,90.668-34.126Z" fill="#89ace8"/>
      <g id="Grupo_53670" data-name="Grupo 53670">
        <g id="Grupo_53656" data-name="Grupo 53656">
          <path id="Trazado_100204" data-name="Trazado 100204" d="M647.2,4642.155h9.358v14.974a3.743,3.743,0,0,0-3.743-3.744H647.2a5.615,5.615,0,1,1,0-11.23Z" fill="#00348d"/>
        </g>
        <g id="Grupo_53657" data-name="Grupo 53657">
          <path id="Trazado_100205" data-name="Trazado 100205" d="M671.535,4682.085H656.561v-47.416a3.744,3.744,0,0,1,3.744-3.744h7.487a3.744,3.744,0,0,1,3.743,3.744Z" fill="#6685bb"/>
        </g>
        <g id="Grupo_53658" data-name="Grupo 53658">
          <path id="Trazado_100206" data-name="Trazado 100206" d="M671.535,4682.085h-7.487v-43.907a3.51,3.51,0,0,1,3.51-3.509h3.977Z" fill="#00348d"/>
        </g>
        <path id="Trazado_100207" data-name="Trazado 100207" d="M702.721,4645.329l2.817-2.817a3.12,3.12,0,0,0-4.412-4.412l-3.343,3.343a22.349,22.349,0,0,0-7.531-2.719v-4.055a3.743,3.743,0,1,0-7.487,0v4.055a22.305,22.305,0,0,0-7.516,2.711l-3.336-3.335a3.119,3.119,0,1,0-4.411,4.412l2.8,2.8a22.385,22.385,0,0,0-6.259,15.555v20.589h14.974v-20.589a7.487,7.487,0,1,1,14.973,0v20.589h14.974v-20.589A22.38,22.38,0,0,0,702.721,4645.329Z" fill="#ffb000"/>
        <g id="Grupo_53659" data-name="Grupo 53659">
          <path id="Trazado_100208" data-name="Trazado 100208" d="M664.048,4660.872a22.46,22.46,0,0,1,22.461-22.46v7.487a14.974,14.974,0,0,0-14.974,14.973Z" fill="#ffca00"/>
        </g>
        <g id="Grupo_53660" data-name="Grupo 53660">
          <circle id="Elipse_4003" data-name="Elipse 4003" cx="24.332" cy="24.332" r="24.332" transform="translate(675.278 4657.129)" fill="#7e324f"/>
        </g>
        <g id="Grupo_53661" data-name="Grupo 53661">
          <path id="Trazado_100209" data-name="Trazado 100209" d="M634.1,4681.461a61.766,61.766,0,0,0,61.766,61.766h9.359a11.23,11.23,0,0,0,11.23-11.23v-37.434a13.1,13.1,0,0,0-13.1-13.1Z" fill="#f579a8"/>
        </g>
        <path id="Trazado_100210" data-name="Trazado 100210" d="M679.022,4700.178h-3.744a1.874,1.874,0,0,1-1.871-1.872v-1.871a5.585,5.585,0,0,0-.322-1.872h4.065a1.872,1.872,0,0,0,0-3.744H665.92a1.872,1.872,0,0,0,0,3.744h1.872a1.874,1.874,0,0,1,1.871,1.872v9.358a5.622,5.622,0,0,0,5.615,5.615,1.872,1.872,0,1,0,0-3.743,1.873,1.873,0,0,1-1.871-1.872V4703.6a5.58,5.58,0,0,0,1.871.322h3.744a1.871,1.871,0,1,0,0-3.743Z" fill="#b85b7e"/>
        <path id="Trazado_100211" data-name="Trazado 100211" d="M703.354,4679.589a1.872,1.872,0,0,0-1.872,1.872v1.872a1.873,1.873,0,0,1-1.871,1.871h-1.872a5.621,5.621,0,0,0-5.615,5.615v3.744a1.871,1.871,0,1,0,3.743,0v-3.744a1.873,1.873,0,0,1,1.872-1.871h1.872a5.58,5.58,0,0,0,1.871-.322v5.937a1.872,1.872,0,1,0,3.744,0v-13.1A1.872,1.872,0,0,0,703.354,4679.589Z" fill="#b85b7e"/>
        <g id="Grupo_53662" data-name="Grupo 53662">
          <path id="Trazado_100212" data-name="Trazado 100212" d="M705.226,4724.51h-9.359a61.791,61.791,0,0,1-58.876-43.049H634.1a61.766,61.766,0,0,0,61.766,61.766h9.359a11.23,11.23,0,0,0,11.23-11.23V4713.28A11.23,11.23,0,0,1,705.226,4724.51Z" fill="#b85b7e"/>
        </g>
        <g id="Grupo_53663" data-name="Grupo 53663">
          <path id="Trazado_100213" data-name="Trazado 100213" d="M716.456,4653.385H686.509a7.487,7.487,0,0,0-7.487,7.487v20.589h14.973v-5.615a7.487,7.487,0,0,1,7.487-7.487h14.974a7.487,7.487,0,0,0,0-14.974Z" fill="#00348d"/>
        </g>
        <g id="Grupo_53664" data-name="Grupo 53664">
          <path id="Trazado_100214" data-name="Trazado 100214" d="M664.048,4694.563H649.075a7.487,7.487,0,0,0-7.487,7.487,3.743,3.743,0,0,1-7.487,0v-20.589a24.332,24.332,0,0,1,24.332-24.332h5.615a18.717,18.717,0,1,1,0,37.434Z" fill="#b85b7e"/>
        </g>
        <g id="Grupo_53665" data-name="Grupo 53665">
          <path id="Trazado_100215" data-name="Trazado 100215" d="M673,4659.406a18.722,18.722,0,0,1-16.44,27.67H641.588a7.487,7.487,0,0,0-7.487,7.487v7.487a3.743,3.743,0,0,0,7.487,0,7.487,7.487,0,0,1,7.487-7.487h14.973A18.719,18.719,0,0,0,673,4659.406Z" fill="#7e324f"/>
        </g>
        <g id="Grupo_53666" data-name="Grupo 53666">
          <path id="Trazado_100216" data-name="Trazado 100216" d="M637.845,4683.333a1.872,1.872,0,0,1-1.872-1.872,22.485,22.485,0,0,1,22.46-22.46h5.615a1.872,1.872,0,1,1,0,3.743h-5.615a18.738,18.738,0,0,0-18.717,18.717A1.872,1.872,0,0,1,637.845,4683.333Z" fill="#f579a8"/>
        </g>
        <g id="Grupo_53667" data-name="Grupo 53667">
          <circle id="Elipse_4004" data-name="Elipse 4004" cx="5.615" cy="5.615" r="5.615" transform="translate(710.841 4655.257)" fill="#463c4b"/>
        </g>
        <g id="Grupo_53668" data-name="Grupo 53668">
          <circle id="Elipse_4005" data-name="Elipse 4005" cx="3.743" cy="3.743" r="3.743" transform="translate(682.765 4638.412)" fill="#ffca00"/>
        </g>
        <g id="Grupo_53669" data-name="Grupo 53669">
          <path id="Trazado_100217" data-name="Trazado 100217" d="M716.456,4653.385H686.509a7.487,7.487,0,0,0-7.487,7.487h29.947A7.487,7.487,0,0,1,716.456,4653.385Z" fill="#6685bb"/>
        </g>
      </g>
    </g>
  </g>
</svg>
