<svg xmlns="http://www.w3.org/2000/svg" width="74.459" height="78.954" viewBox="0 0 74.459 78.954">
  <g id="Grupo_53538" data-name="Grupo 53538" transform="translate(0 0)">
    <path id="Trazado_99976" data-name="Trazado 99976" d="M606.534,2792.385l-.125-4.605a1.041,1.041,0,0,0-1.035-.925h-5a1.218,1.218,0,0,0-1.223,1.124l0,4.639a1.061,1.061,0,0,0,.982,1.135l.057,0h5.132a1.245,1.245,0,0,0,1.226-1.262C606.54,2792.457,606.538,2792.42,606.534,2792.385Z" transform="translate(-548.789 -2782.199)" fill="#40a09d"/>
    <path id="Trazado_99977" data-name="Trazado 99977" d="M589.732,2884.2c-.276-1.258-1.281-2.448-3.85-2.943-6.492-1.247-10.92-8.059-10.92-8.059l-21.826-10.458-3.356,1.759a7.973,7.973,0,0,1-2.883.867,13.863,13.863,0,0,0-1.512,13.642c4.922,2.267,6.889,7.253,6.565,12.013h.032a11.762,11.762,0,0,0,5.721-2.906c3.262,4.708,8.853,7.186,12.053,8.281a3.488,3.488,0,0,0,4.609-2.752c.173-1.277-.363-2.739-2.606-4.084a16.523,16.523,0,0,1-6.079-7.37,17.966,17.966,0,0,0,2.834-2.1c4.338,7.428,13.306,8.364,17.832,8.273a3.486,3.486,0,0,0,3.386-4.165Z" transform="translate(-517.82 -2825.009)" fill="#ffb5ab"/>
    <path id="Trazado_99978" data-name="Trazado 99978" d="M512.443,2898.436c4.922,2.267,6.889,7.253,6.565,12.013a13.175,13.175,0,0,1-3.833,8.678c-6.191,5.78-14.417,3.114-19.247-1.536a1.73,1.73,0,0,0-2.094-.227l-2.173,1.316a3.849,3.849,0,0,1-5.287-1.293c-.016-.027-.032-.053-.047-.081-.038-.065-.074-.133-.108-.2a3.744,3.744,0,0,1,1.879-5.04l6-2.7h0a15.813,15.813,0,0,0,3.353,1.56s-4.91-14.08,9.164-13.747q.585.015,1.139.063a13.989,13.989,0,0,1,4.692,1.189Z" transform="translate(-484.877 -2844.432)" fill="#ffc9c0"/>
    <path id="Trazado_99979" data-name="Trazado 99979" d="M536.767,2867.065a7.966,7.966,0,0,0,3.715.509,13.863,13.863,0,0,0-1.512,13.642,14,14,0,0,0-4.692-1.189c-3.861-6.4,1.436-13.375,1.436-13.375Z" transform="translate(-511.405 -2827.212)" fill="#867af4"/>
    <path id="Trazado_99980" data-name="Trazado 99980" d="M511.1,2864.095l1.251.491s-5.3,6.977-1.436,13.375q-.554-.048-1.139-.063c-14.075-.333-9.164,13.747-9.164,13.747a15.814,15.814,0,0,1-3.353-1.56h0c-3.412-2.133-6.076-5.893-5.782-12.475.408-9.116,5.113-12.663,9.468-13.98a15.519,15.519,0,0,1,10.156.465Z" transform="translate(-488.043 -2825.148)" fill="#f579a8"/>
    <path id="Trazado_99981" data-name="Trazado 99981" d="M588.764,2801.4l-13.87-3.528-14.82.645h0a21.378,21.378,0,0,0-6.562,13.522c-.01.146-.122.343-.26.294-2.316-.862-3.826,1.528-3.694,3.975.2,3.763,2.734,6.953,4.962,6.839a.315.315,0,0,1,.308.207,22.084,22.084,0,0,0,1.3,2.794,20.546,20.546,0,0,0,17.751,10.889,19.4,19.4,0,0,0,4.074-.432c9.332-2.009,16.354-10.778,16.354-21.293a20.5,20.5,0,0,0-5.546-13.913Z" transform="translate(-520.814 -2788.417)" fill="#ffc9c0"/>
    <path id="Trazado_99982" data-name="Trazado 99982" d="M633.338,2856.207a1.513,1.513,0,1,1-1.51,1.516v0a1.511,1.511,0,0,1,1.51-1.513Z" transform="translate(-567.227 -2821.321)" fill="#d4e1f4"/>
    <ellipse id="Elipse_4000" data-name="Elipse 4000" cx="1.51" cy="1.513" rx="1.51" ry="1.513" transform="translate(45.477 34.886)" fill="#d4e1f4"/>
    <path id="Trazado_99983" data-name="Trazado 99983" d="M561.105,2826.159a22,22,0,0,1-1.3-2.794.317.317,0,0,0-.308-.207c-2.228.114-4.76-3.076-4.962-6.839-.132-2.447,1.378-4.836,3.694-3.975.138.05.25-.144.26-.291a21.431,21.431,0,0,1,6.562-13.52l.974-.646-5.891.646h-.058a21.433,21.433,0,0,0-6.562,13.52c-.01.146-.122.342-.26.292-2.316-.862-3.826,1.527-3.694,3.974.2,3.763,2.734,6.953,4.962,6.839a.316.316,0,0,1,.308.207,22.031,22.031,0,0,0,1.3,2.794,20.545,20.545,0,0,0,17.751,10.889,19.462,19.462,0,0,0,2.512-.163,20.807,20.807,0,0,1-15.288-10.726Z" transform="translate(-520.814 -2788.423)" fill="#ce9f99"/>
    <path id="Trazado_99984" data-name="Trazado 99984" d="M625.449,2780.2c-5.023-5.067-10.772,2.067-10.772,2.067l0,0-.129,6.563c6.016,3.923,9.489,3.457,10.882,1.574a4.625,4.625,0,0,0,.29-4.457C624.88,2783.913,627.579,2782.355,625.449,2780.2Z" transform="translate(-557.479 -2777.423)" fill="#f579a8"/>
    <path id="Trazado_99985" data-name="Trazado 99985" d="M585,2782.334s-5.361-7.186-10.9-2.118c-2.234,2.043.568,3.708-.271,5.75a5.874,5.874,0,0,0-.4,1.572c-.42,3.706,2.881,7.308,11.6,1.292h0Z" transform="translate(-534.164 -2777.435)" fill="#f579a8"/>
    <path id="Trazado_99986" data-name="Trazado 99986" d="M578.4,2787.538a5.854,5.854,0,0,1,.4-1.573c.84-2.042-1.962-3.707.272-5.75a7.544,7.544,0,0,1,1.778-1.236,5.844,5.844,0,0,0-6.753,1.236c-2.234,2.042.568,3.708-.271,5.75a5.877,5.877,0,0,0-.4,1.573c-.328,2.892,1.612,5.722,6.627,3.962A3.939,3.939,0,0,1,578.4,2787.538Z" transform="translate(-534.164 -2777.434)" fill="#ce4d72"/>
    <g id="Grupo_53537" data-name="Grupo 53537">
      <path id="Trazado_99987" data-name="Trazado 99987" d="M499.053,2884.6a.963.963,0,0,0-1.264.508h0a20.62,20.62,0,0,0-1.5,7.171.962.962,0,0,0,.919,1h.044a.962.962,0,0,0,.961-.919,18.724,18.724,0,0,1,1.345-6.5.963.963,0,0,0-.508-1.264Z" transform="translate(-490.771 -2837.296)" fill="#00348d"/>
      <path id="Trazado_99988" data-name="Trazado 99988" d="M503.461,2879.323a.963.963,0,0,0,1.347-.2h0c.14-.187.285-.371.433-.546a.963.963,0,0,0-1.469-1.245c-.174.205-.345.421-.509.641A.963.963,0,0,0,503.461,2879.323Z" transform="translate(-494.597 -2833.052)" fill="#00348d"/>
      <path id="Trazado_99989" data-name="Trazado 99989" d="M624.012,2839.13a.963.963,0,0,0,1.476-1.235,4.364,4.364,0,0,0-2.88-1.474,4.584,4.584,0,0,0-3.434,1.377.963.963,0,0,0,1.28,1.438l.017-.015a2.772,2.772,0,0,1,1.986-.881,2.492,2.492,0,0,1,1.554.79Z" transform="translate(-559.908 -2810.155)" fill="#00348d"/>
      <path id="Trazado_99990" data-name="Trazado 99990" d="M595.587,2837.894a4.366,4.366,0,0,0-2.88-1.474,4.587,4.587,0,0,0-3.434,1.377.963.963,0,1,0,1.3,1.424,2.769,2.769,0,0,1,1.986-.88,2.492,2.492,0,0,1,1.553.789.963.963,0,0,0,1.476-1.235Z" transform="translate(-543.045 -2810.154)" fill="#00348d"/>
      <path id="Trazado_99991" data-name="Trazado 99991" d="M609.17,2862.64a2.761,2.761,0,0,1-1.986.88,2.491,2.491,0,0,1-1.553-.79.963.963,0,0,0-1.476,1.236,4.365,4.365,0,0,0,2.88,1.474c.089.006.179.009.268.009a4.692,4.692,0,0,0,3.165-1.386.963.963,0,1,0-1.3-1.423Z" transform="translate(-551.497 -2824.808)" fill="#00348d"/>
      <path id="Trazado_99992" data-name="Trazado 99992" d="M588.212,2854a2.476,2.476,0,1,0,2.473,2.479v0A2.478,2.478,0,0,0,588.212,2854Zm0,3.028a.551.551,0,1,1,.548-.554v0A.551.551,0,0,1,588.212,2857.026Z" transform="translate(-541.225 -2820.075)" fill="#00348d"/>
      <path id="Trazado_99993" data-name="Trazado 99993" d="M632.084,2854a2.476,2.476,0,1,0,2.473,2.479v0A2.478,2.478,0,0,0,632.084,2854Zm0,3.028a.551.551,0,1,1,.547-.554v0A.551.551,0,0,1,632.084,2857.026Z" transform="translate(-565.973 -2820.075)" fill="#00348d"/>
      <path id="Trazado_99994" data-name="Trazado 99994" d="M556.318,2835.4a.963.963,0,1,0-.173,1.918c.6.054.689,1.044.691,1.077a.963.963,0,0,0,.96.9h.058a.963.963,0,0,0,.9-1.018h0A2.91,2.91,0,0,0,556.318,2835.4Z" transform="translate(-524.041 -2809.581)" fill="#00348d"/>
      <path id="Trazado_99995" data-name="Trazado 99995" d="M558.087,2803.076a21.457,21.457,0,0,0-5.329-14.025,5.8,5.8,0,0,0,0-4.709,2.352,2.352,0,0,1,.218-1.727c.405-1.125.96-2.664-.695-4.334a6.394,6.394,0,0,0-4.984-2.1c-3.1.159-5.722,2.6-6.756,3.707a2.076,2.076,0,0,0-.33-.028h-5a2.164,2.164,0,0,0-.459.051c-.983-1.109-3.364-3.415-6.371-3.7a6.949,6.949,0,0,0-5.467,2.034c-1.768,1.617-1.158,3.264-.754,4.353.282.76.445,1.252.244,1.741a6.854,6.854,0,0,0-.419,1.472,22.357,22.357,0,0,0-6.549,13.155,3.158,3.158,0,0,0-2.2.612,5.33,5.33,0,0,0-1.827,4.542c.213,3.97,2.764,7.485,5.49,7.739.228.562.477,1.108.745,1.644l-2.5,1.311a6.988,6.988,0,0,1-5.8.315l-2.306-.9a16.542,16.542,0,0,0-10.787-.491c-4.387,1.328-9.708,4.983-10.15,14.858-.224,5,1.17,8.949,4.143,11.734.218.2.449.4.684.591l-4.474,2.013a4.821,4.821,0,0,0-2.552,2.764,4.538,4.538,0,0,0,.205,3.583c.042.084.086.167.134.25a4.816,4.816,0,0,0,6.576,1.771l.092-.055,2.173-1.316a.766.766,0,0,1,.928.1,18.335,18.335,0,0,0,9.636,4.938,14.061,14.061,0,0,0,2.129.166,12.666,12.666,0,0,0,8.807-3.556,13.6,13.6,0,0,0,3.842-7.156c.1-.475.173-.954.228-1.434a13.049,13.049,0,0,0,4.723-2.267,19.748,19.748,0,0,0,3.372,3.3,29.914,29.914,0,0,0,8.5,4.464,4.519,4.519,0,0,0,3.848-.433,4.321,4.321,0,0,0,2.028-3.1c.182-1.352-.2-3.323-3.067-5.039a14.981,14.981,0,0,1-5.331-6.194c.512-.339.968-.672,1.374-1,4.718,6.895,13.353,7.788,17.5,7.788.2,0,.393,0,.572-.005a4.518,4.518,0,0,0,3.466-1.726,4.319,4.319,0,0,0,.84-3.607c-.292-1.332-1.329-3.052-4.609-3.683-4.468-.858-7.964-4.635-9.477-6.537,9.038-2.653,15.693-11.452,15.693-21.871Zm-14.729-23.168a7.557,7.557,0,0,1,4.039-1.8,4.486,4.486,0,0,1,3.517,1.528c.769.776.641,1.246.252,2.327a4.072,4.072,0,0,0-.188,3.11,3.382,3.382,0,0,1-.55,3.915c-1.487,1.229-4.538.618-8.271-1.621a2.189,2.189,0,0,0,.177-1.064l-.123-4.572a.706.706,0,0,0,0-.075,2.025,2.025,0,0,0-.146-.566,13.432,13.432,0,0,1,1.3-1.182Zm-8.416,2.523a.642.642,0,0,1,.642-.642h4.19a.642.642,0,0,1,.642.642v3.68a.642.642,0,0,1-.642.642h-4.19a.642.642,0,0,1-.642-.642Zm-10.729-2.762a5.045,5.045,0,0,1,3.978-1.538c2.265.211,4.2,2.045,5.045,2.98a2.155,2.155,0,0,0-.208.768c0,.025,0,.05,0,.075l-.005,4.607a1.994,1.994,0,0,0,.107.763c-5.349,3.454-7.606,2.511-8.344,1.916a3.61,3.61,0,0,1-.6-4.166,4.083,4.083,0,0,0-.219-3.142c-.418-1.13-.524-1.556.249-2.263Zm-15.908,37.124.334.131a8.922,8.922,0,0,0,2.3.564,14.551,14.551,0,0,0-1.32,11.087,15.879,15.879,0,0,0-2.521-.495C504.628,2823.459,507.249,2818.48,508.306,2816.793Zm-20.282,11.888c.314-7.024,3.269-11.433,8.784-13.1a14.61,14.61,0,0,1,9.526.44l.147.058a17.8,17.8,0,0,0-1.624,3.524,11.955,11.955,0,0,0,.06,8.36c-4.1-.006-7.065,1.195-8.8,3.584-2.2,3.026-1.823,7.142-1.332,9.526a12.412,12.412,0,0,1-3.221-2.148c-2.543-2.384-3.733-5.83-3.536-10.243Zm25.243,21.486c-3.994,3.729-11.307,4.843-17.921-1.527a2.7,2.7,0,0,0-3.26-.354l-2.173,1.315a2.889,2.889,0,0,1-3.969-.975l-.033-.056c-.028-.049-.055-.1-.08-.149a2.63,2.63,0,0,1-.114-2.077,2.889,2.889,0,0,1,1.528-1.654l5.542-2.495a20.191,20.191,0,0,0,7.557,2.385,28.325,28.325,0,0,0,3.517.219,21.181,21.181,0,0,0,2.134-.093.963.963,0,0,0-.211-1.914,24.894,24.894,0,0,1-8.816-.884c-.417-1.463-1.513-6.19.7-9.229,1.412-1.939,4-2.874,7.67-2.79,5.27.125,9.067,2.546,10.693,6.818,1.743,4.575.554,10.362-2.764,13.459Zm38.242-16.792c1.833.352,2.844,1.073,3.092,2.2a2.369,2.369,0,0,1-.473,2,2.6,2.6,0,0,1-1.992.992c-3.583.073-12.2-.5-16.587-7.161a9.054,9.054,0,0,0,1.311-1.687.962.962,0,0,0-1.65-.988,10.992,10.992,0,0,1-3.284,3.193,20.786,20.786,0,0,1-.911-2.729.963.963,0,0,0-1.877.432c.078.34,1.981,8.356,7.934,11.923,1.6.958,2.3,1.982,2.148,3.129a2.37,2.37,0,0,1-1.132,1.72,2.6,2.6,0,0,1-2.213.25,28.026,28.026,0,0,1-7.948-4.163,14.574,14.574,0,0,1-5.8-8.974.963.963,0,1,0-1.9.342,15.009,15.009,0,0,0,2.034,5.277,10.534,10.534,0,0,1-3.514,1.814,14.569,14.569,0,0,0-.918-4.929,12.036,12.036,0,0,0-4.336-5.631,12.175,12.175,0,0,0-1.557-.921,12.936,12.936,0,0,1,1.305-12.032,8.948,8.948,0,0,0,2.792-.915l2.542-1.332a21.5,21.5,0,0,0,18.117,10.574,20.213,20.213,0,0,0,3.643-.331c1.234,1.7,5.38,6.827,11.169,7.94Zm-14.813-9.535c-7.857,0-15.153-5.252-18.156-13.067a1.276,1.276,0,0,0-1.255-.823,3.3,3.3,0,0,1-2.42-1.58,8.161,8.161,0,0,1-1.531-4.35,3.5,3.5,0,0,1,1.045-2.887,1.346,1.346,0,0,1,1.352-.134,1.086,1.086,0,0,0,.973-.107,1.344,1.344,0,0,0,.582-1.021,20.1,20.1,0,0,1,4.834-11.387,4.47,4.47,0,0,0,1.454,2.256,4.782,4.782,0,0,0,3.089,1.014,13.982,13.982,0,0,0,6.522-2.209,5.78,5.78,0,0,0-.542.851,6.637,6.637,0,0,0,.056,5.733,5.614,5.614,0,0,0,4.677,3.367,6.064,6.064,0,0,0,.625.033,4.763,4.763,0,0,0,4.029-2.014,4.54,4.54,0,0,0,.212-4.781,3.051,3.051,0,0,0-3.3-1.23.963.963,0,1,0,.346,1.894l.016,0c.947-.181,1.232.254,1.326.4a2.64,2.64,0,0,1-.193,2.641,2.981,2.981,0,0,1-2.861,1.149,3.717,3.717,0,0,1-3.1-2.182,4.826,4.826,0,0,1-.132-4.11,6.074,6.074,0,0,1,3.592-2.61h2.212a2.2,2.2,0,0,0,.4-.039c3.476,2.2,6.012,2.9,7.828,2.9a5.057,5.057,0,0,0,3.147-.96,19.214,19.214,0,0,1,4.638,12.5c0,11.448-8.733,20.763-19.466,20.763Z" transform="translate(-483.628 -2776.176)" fill="#00348d"/>
    </g>
  </g>
</svg>
