<svg xmlns="http://www.w3.org/2000/svg" width="90.783" height="86.539" viewBox="0 0 90.783 86.539">
  <g id="Grupo_53541" data-name="Grupo 53541" transform="translate(0 0)">
    <path id="Trazado_99996" data-name="Trazado 99996" d="M909.651,2773.8l-5.9,8.331-2.646-1.939,5.9-8.331Z" transform="translate(-839.925 -2769.949)" fill="#a5bfce"/>
    <path id="Trazado_99997" data-name="Trazado 99997" d="M901.279,2791.021l-8.151-5.977a.248.248,0,0,0-.347.053h0l-1.415,1.928a.248.248,0,0,0,.053.347h0l8.148,5.977a.25.25,0,0,0,.349-.054l1.415-1.928a.248.248,0,0,0-.053-.347Z" transform="translate(-834.406 -2777.359)" fill="#bc6275"/>
    <path id="Trazado_99998" data-name="Trazado 99998" d="M773.878,2913.328v20.489a1.35,1.35,0,0,0,1.267,1.36h76.808a1.35,1.35,0,0,0,1.268-1.36v-20.662Z" transform="translate(-768.158 -2849.653)" fill="#a0eaea"/>
    <path id="Trazado_99999" data-name="Trazado 99999" d="M779.413,2934.14v-20.414h-5.535v20.414a1.35,1.35,0,0,0,1.267,1.36h5.536A1.35,1.35,0,0,1,779.413,2934.14Z" transform="translate(-768.158 -2849.975)" fill="#84c1bf"/>
    <path id="Trazado_100000" data-name="Trazado 100000" d="M898.319,2827.406c1.173,1,5.22,5.2,6.477,8.121.629,1.465,3.118,7.259-.072,12.042a12.486,12.486,0,0,1-7.154,4.9l-7.34.017c4.194-16.806-7.894-23.412-7.894-23.412v0a9.507,9.507,0,0,1,4.846-6.814l10.424-5.547a4.989,4.989,0,0,1,5.436,8.322Z" transform="translate(-829.339 -2794.914)" fill="#80aaff"/>
    <path id="Trazado_100001" data-name="Trazado 100001" d="M849.04,2824.616v0a9.082,9.082,0,0,0-.611-5.163l-.131-.015-3.741-8.736a4.185,4.185,0,0,0-7.667,3.359l2.7,6.191a3.592,3.592,0,0,1-.389,3.55l-5.57,7.648-10.32,16.616v.037l33.623-.072c4.194-16.806-7.894-23.411-7.894-23.411Z" transform="translate(-796.043 -2790.455)" fill="#89ace8"/>
    <path id="Trazado_100002" data-name="Trazado 100002" d="M881.126,2790.929l-9.565,13.21a1.033,1.033,0,0,0,.218,1.445l0,0,4.319,3.17.526.386a1.04,1.04,0,0,0,1.45-.223l9.583-13.195Z" transform="translate(-823.147 -2780.706)" fill="#ff8c1a"/>
    <path id="Trazado_100003" data-name="Trazado 100003" d="M876.032,2828.235h0l-.618.821a1.172,1.172,0,0,1-.083.1,2.335,2.335,0,0,1-3.143.332,1.981,1.981,0,0,1-.155-.125,2.335,2.335,0,0,1-.347-3.144l.561-.766Z" transform="translate(-823.075 -2800.184)" fill="#bc6275"/>
    <path id="Trazado_100004" data-name="Trazado 100004" d="M813.873,2849.458a13.034,13.034,0,0,1-10.32,16.616v.037l-4.268.009v0a13.069,13.069,0,1,1,14.588-16.66Z" transform="translate(-776.285 -2808.468)" fill="#ffc9c0"/>
    <path id="Trazado_100005" data-name="Trazado 100005" d="M850.765,2899.41l-86.391.188a1.088,1.088,0,0,0-1.078,1.086v4.549a1.088,1.088,0,0,0,1.09,1.086h.01l86.391-.188a1.088,1.088,0,0,0,1.078-1.087V2900.5a1.089,1.089,0,0,0-1.09-1.087Z" transform="translate(-762.189 -2841.899)" fill="#86c4c2"/>
    <path id="Trazado_100006" data-name="Trazado 100006" d="M768.832,2905.43v-4.549a1.117,1.117,0,0,1,1.078-1.124h-5.536a1.117,1.117,0,0,0-1.078,1.124v4.549a1.088,1.088,0,0,0,1.09,1.086h.01l5.374-.012a1.086,1.086,0,0,1-.938-1.075Z" transform="translate(-762.189 -2842.095)" fill="#6c9e9c"/>
    <g id="Grupo_53540" data-name="Grupo 53540">
      <path id="Trazado_100007" data-name="Trazado 100007" d="M849.344,2823.141h-.024l-14.9.16a10.8,10.8,0,0,0,2.642-2.742c2.913-4.366,1.7-9.53.168-13.093a22.771,22.771,0,0,0-3.444-5.062c-.738-.862-1.5-1.684-2.148-2.339l3.5-1.785a6.1,6.1,0,0,0-6.637-10.172l-9.632,5.126,6.488-8.819a1.333,1.333,0,0,0,.706.206,1.3,1.3,0,0,0,.208-.016,1.346,1.346,0,0,0,.887-.538l1.415-1.927a1.355,1.355,0,0,0-.289-1.9l0,0-1.934-1.419,4.37-5.952.355.261a1.107,1.107,0,0,0,1.31-1.786l-4.99-3.659a1.107,1.107,0,0,0-1.31,1.786l.2.148-4.37,5.952-1.784-1.308a1.356,1.356,0,0,0-1.895.291l-1.415,1.927a1.354,1.354,0,0,0,.211,1.831l-6.631,9.039-.12-.273a5.293,5.293,0,1,0-9.694,4.253l2.7,6.19a2.493,2.493,0,0,1-.269,2.456L798.64,2806a14.223,14.223,0,0,0-27.076,6.059,14.054,14.054,0,0,0,6.4,11.851l-15.033.161a2.2,2.2,0,0,0-2.174,2.194v4.548a2.2,2.2,0,0,0,2.2,2.194h.023l2.391-.026v18.662a2.379,2.379,0,0,0,2.378,2.375H844.55a2.38,2.38,0,0,0,2.378-2.375V2832.1l2.437-.026a2.2,2.2,0,0,0,2.173-2.194v-4.547a2.2,2.2,0,0,0-2.2-2.194Zm-30.224-27.53,10.425-5.547a3.881,3.881,0,0,1,4.314,6.408l-7.72,3.882a1.107,1.107,0,1,0,.967,1.992l.028-.015,2.42-1.216c1.5,1.45,4.638,4.88,5.646,7.225,1.315,3.06,2.386,7.45.025,10.991a10.1,10.1,0,0,1-6.38,4.029l-5.7.061c1.7-8.315-.6-14-2.9-17.35a19.149,19.149,0,0,0-5.218-5.151,8.272,8.272,0,0,1,4.1-5.309Zm8.956-24.678.86.631-4.372,5.952-.86-.631Zm-8.558,5.628,6.765,4.961-.4.544-6.766-4.962Zm-.7,3.069,4.751,3.484-1.192,1.62-1.745-1.28a1.107,1.107,0,0,0-1.31,1.786l1.742,1.277-.959,1.305-1.742-1.277a1.107,1.107,0,1,0-1.31,1.785h0l1.739,1.275-.959,1.3-1.738-1.275a1.107,1.107,0,0,0-1.31,1.785l1.736,1.273-1.681,2.286-4.734-3.472Zm-8.641,14.674,1.976,1.449a1.236,1.236,0,0,1-1.976-1.449Zm-10.623,14.2,5.257-7.217a4.716,4.716,0,0,0,.509-4.645l-2.7-6.191a3.078,3.078,0,1,1,5.639-2.471l.634,1.437-.615.838a2.143,2.143,0,0,0,.134,2.7,3.441,3.441,0,0,0-.1,3.743l-2.03,2.763a1.107,1.107,0,0,0,1.785,1.31l1.949-2.654a3.474,3.474,0,0,0,1.265.24,3.416,3.416,0,0,0,1.3-.255,6.88,6.88,0,0,1-.279,4.279l-4.352,9.2a1.107,1.107,0,0,0,1.992.967l.01-.021,3.526-7.456,1.555,5.846a1.108,1.108,0,1,0,2.141-.569l-1.673-6.287a17.381,17.381,0,0,1,2.973,3.352c2.979,4.395,3.785,9.785,2.4,16.033l-27.05.29a14.145,14.145,0,0,0,5.729-15.234Zm-25.775,3.553A12.006,12.006,0,1,1,787.87,2823.8l-3.972.042A11.858,11.858,0,0,1,773.778,2812.055Zm70.936,39.584a.162.162,0,0,1-.164.161H767.744a.162.162,0,0,1-.163-.161v-18.685l77.133-.827Zm4.611-21.776-86.354.927v-4.508l86.354-.926Z" transform="translate(-760.756 -2767.476)" fill="#00348d"/>
      <path id="Trazado_100008" data-name="Trazado 100008" d="M782.4,2921.822a1.107,1.107,0,0,0,1.107-1.107v-.436a1.107,1.107,0,0,0-2.214,0v.436A1.107,1.107,0,0,0,782.4,2921.822Z" transform="translate(-772.34 -2853.047)" fill="#00348d"/>
      <path id="Trazado_100009" data-name="Trazado 100009" d="M782.4,2940.867a1.107,1.107,0,0,0,1.107-1.107h0v-11.2a1.107,1.107,0,1,0-2.214,0v11.2a1.107,1.107,0,0,0,1.107,1.107Z" transform="translate(-772.34 -2857.718)" fill="#00348d"/>
    </g>
  </g>
</svg>
