<svg xmlns="http://www.w3.org/2000/svg" width="69.492" height="86.212" viewBox="0 0 69.492 86.212">
  <g id="Grupo_53545" data-name="Grupo 53545" transform="translate(0 0)">
    <g id="Grupo_53543" data-name="Grupo 53543" transform="translate(1.263 1.263)">
      <path id="Trazado_100010" data-name="Trazado 100010" d="M1168.072,2922.155l8.961,17.647.029.006,15.349.033c0-3.039-.024-5.882-.116-8.471Z" transform="translate(-1125.444 -2856.156)" fill="#fff0af"/>
      <path id="Trazado_100011" data-name="Trazado 100011" d="M1169.545,2931.9l-4.823-11.309a13.726,13.726,0,0,0,3.939-.726,7.878,7.878,0,0,0,.495.718,7.514,7.514,0,0,0,5.99,2.885h9.66q-.045-1.307-.117-2.526l-29.892-12.8,11.884,23.754,2.892.006Z" transform="translate(-1117.957 -2848.254)" fill="#ffe07d"/>
      <path id="Trazado_100012" data-name="Trazado 100012" d="M1078.308,2809.916a9.4,9.4,0,0,0-3.512,8.035c.278,3.085,2.59,6.677,6.481,7.27,2.723.415,6.2-.4,7.64-1.924-2.086-5.574-5.4-14.041-5.4-14.041A10.69,10.69,0,0,0,1078.308,2809.916Z" transform="translate(-1072.808 -2792.429)" fill="#ffcdbe"/>
      <path id="Trazado_100013" data-name="Trazado 100013" d="M1079,2825.479a6.68,6.68,0,0,1-6.115-6.578c0-3.781.755-5.871,2.9-8.036a8.742,8.742,0,0,0-5.5,8.235,9.333,9.333,0,0,0,8.226,9.242,15.3,15.3,0,0,0,8.711-1.63c-.324-.885-.389-1.29-.829-2.467a13.6,13.6,0,0,1-7.392,1.234Z" transform="translate(-1070.28 -2793.377)" fill="#ebae9d"/>
      <path id="Trazado_100014" data-name="Trazado 100014" d="M1099.056,2787.575c0,6.857,3.8,10.776,5.41,13.763l27.869-5.224c.02-6.562.043-15.544.044-20.38-3.972-3.72-10.1-4.986-15.405-4.986a25.447,25.447,0,0,0-10.3,2.055,17.474,17.474,0,0,0-7.613,14.772Z" transform="translate(-1086.512 -2770.748)" fill="#ffcdbe"/>
      <path id="Trazado_100015" data-name="Trazado 100015" d="M1106.608,2799.693a33.718,33.718,0,0,1-4.218,3.37c-1.829-3.286-5.017-6.533-5.017-12.83,0-8.912,4.683-13.071,6.922-14.772-5.392,2.418-9.448,7.106-9.448,14.772,0,7.768,4.366,11.431,6.229,16.508h28.859s.011-3.4.025-7.968Z" transform="translate(-1084.138 -2773.406)" fill="#ebae9d"/>
      <path id="Trazado_100016" data-name="Trazado 100016" d="M1143.737,2820.883c1.549-2.14,2.738-5.767,3.9-10.919,1.79-.075,3.63-1.138,3.63-2.87,0-1.872-2.566-2.812-3.295-5.455a8.4,8.4,0,0,1,.075-4.04c1.517-7.371-.3-12.268-3.659-15.412,0,8.2-11.075,8.127-11.075,8.127s-.983,4.924-5.965,10.035a3.788,3.788,0,0,0-3.158-1.738,3.948,3.948,0,0,0-3.845,4.044,6.662,6.662,0,0,0,1.1,3.749c1.109,1.648,3.365,12.137,3.365,12.137l16.08,3.352Z" transform="translate(-1098.522 -2777.201)" fill="#c38778"/>
      <path id="Trazado_100017" data-name="Trazado 100017" d="M1122.874,2862.163v-9.4a23.159,23.159,0,0,0,7.875,1.787,4.866,4.866,0,0,0,4.074-2.325c-.527,0-3.323-.1-4.074-.2-6.6-.887-12.853-3.588-12.853-8.395l-.037-3.187a6.239,6.239,0,0,1-5.328-2.7,23.586,23.586,0,0,1-5.985,4.131,12.952,12.952,0,0,1,.827,4.547c0,4.517-1.449,8.9-2.829,13.4Z" transform="translate(-1089.608 -2808.539)" fill="#b46e5a"/>
      <path id="Trazado_100018" data-name="Trazado 100018" d="M1179.773,2883.726a11.533,11.533,0,0,0-18.7-8.417c-1.773,2.26-3.057,6.619-1.871,9.4l4.094,9.6c1.156,2.04,4.888,1.919,6.62,1.3.429-1.97,10.75-9.654,10.75-9.654,0-.046,0-.091,0-.138a2.787,2.787,0,0,0-.9-2.09Z" transform="translate(-1120.182 -2828.315)" fill="#c38778"/>
      <path id="Trazado_100019" data-name="Trazado 100019" d="M1170.775,2892.654a7.564,7.564,0,0,0-3.481,4.852c-1.732.618-3.751.81-4.936.045l-4.094-9.6a13.684,13.684,0,0,1,.187-9.4,11.512,11.512,0,0,0-4.357,9.027v9.845l5.738,2.651c2.976,2.239,7.334,1.264,10.232-.508.772-.472,6.01-7.2,6.01-7.2a3.717,3.717,0,0,0,1.969-3.175,7.027,7.027,0,0,0-3.287,1.02Z" transform="translate(-1117.559 -2831.561)" fill="#b46e5a"/>
      <path id="Trazado_100020" data-name="Trazado 100020" d="M1136.539,2920.76l-10.673-25.024a12.077,12.077,0,0,0-11.109-7.339h-9.484s-3.913,6.775-3.913,12.865c0,8.587,5.489,19.538,5.489,19.538h12.292l.81-1.06,1.936,1.06Z" transform="translate(-1087.813 -2837.113)" fill="#f579a8"/>
      <path id="Trazado_100021" data-name="Trazado 100021" d="M1105.474,2920.8a49.089,49.089,0,0,1-4.026-19.664c0-4.465,1.2-8.65,2.45-12.739h-2.526c-1.254,4.089-2.45,8.273-2.45,12.739a49.09,49.09,0,0,0,4.026,19.664Z" transform="translate(-1086.437 -2837.113)" fill="#ff8086"/>
      <path id="Trazado_100022" data-name="Trazado 100022" d="M1138.24,2945.158h-2.746l-5.042-11.821a1.263,1.263,0,1,1,2.323-.99Z" transform="translate(-1104.166 -2861.472)" fill="#ff8086"/>
      <path id="Trazado_100023" data-name="Trazado 100023" d="M1195.077,2920.434l9.353-1.683a23.868,23.868,0,0,0-1.6-7.412,4.5,4.5,0,0,0-6.431-1.938l-3.982,2.434a4.965,4.965,0,0,0-2.29,3.037C1190.649,2916.968,1192.435,2920.434,1195.077,2920.434Z" transform="translate(-1137.887 -2848.587)" fill="#c38778"/>
      <path id="Trazado_100024" data-name="Trazado 100024" d="M1194.876,2926.689a5,5,0,0,1-4.947-3.879,5.1,5.1,0,0,0,4.947,6.4h9.543q-.077-1.321-.19-2.525Z" transform="translate(-1137.685 -2856.526)" fill="#b46e5a"/>
    </g>
    <g id="Grupo_53544" data-name="Grupo 53544">
      <path id="Trazado_100025" data-name="Trazado 100025" d="M1099.975,2854.063a1.263,1.263,0,0,1-1.163-.768l-5.042-11.821a1.263,1.263,0,1,1,2.323-.991l5.042,11.821a1.263,1.263,0,0,1-1.161,1.758Zm-14.818,0a1.263,1.263,0,0,1-1.162-.768,50.415,50.415,0,0,1-4.127-20.159c0-4.979,1.413-9.564,2.779-14,1.286-4.173,2.5-8.114,2.5-12.144a11.479,11.479,0,0,0-.344-2.812,15.679,15.679,0,0,1-8.114,1.145,11.114,11.114,0,0,1-6.571-3.41,10.26,10.26,0,0,1-2.737-7.082,10.027,10.027,0,0,1,3.168-7.424,10.884,10.884,0,0,1,7.582-2.807,16.215,16.215,0,0,1,6.779-12.662,24.483,24.483,0,0,1,14.2-4.092,31.562,31.562,0,0,1,7.491.863,1.263,1.263,0,1,1-.6,2.453,29.485,29.485,0,0,0-6.891-.791,21.96,21.96,0,0,0-12.723,3.618c-3.826,2.747-5.766,6.766-5.766,11.946,0,4.863,1.852,8.039,3.644,11.109a40.835,40.835,0,0,1,1.964,3.648,22.436,22.436,0,0,0,3.739-2.623,8.173,8.173,0,0,1-.757-3.506,5.216,5.216,0,0,1,5.107-5.307,4.989,4.989,0,0,1,3.163,1.139,20.418,20.418,0,0,0,4.721-8.42,1.262,1.262,0,0,1,1.238-1.015h.01a16.8,16.8,0,0,0,5.07-.9c2.939-1.062,4.522-2.885,4.712-5.425a14.736,14.736,0,0,0-3.073-1.989,1.263,1.263,0,1,1,1.114-2.267c5.024,2.469,10.514,7.836,8.137,19.385a7.174,7.174,0,0,0-.094,3.45,6.12,6.12,0,0,0,1.627,2.492,4.937,4.937,0,0,1,1.713,3.3,4.353,4.353,0,0,1-3.861,4.021,37.167,37.167,0,0,1-3.171,9.353q.543-.045,1.095-.045a12.677,12.677,0,0,1,5.53,1.253,1.263,1.263,0,1,1-1.092,2.277,10.186,10.186,0,0,0-4.437-1,10.315,10.315,0,0,0-10.265,9.865,13.407,13.407,0,0,1,1.409,2.515l1.025,2.4a1.108,1.108,0,0,0,1.061-.671,1.263,1.263,0,0,1,2.313,1.014,3.633,3.633,0,0,1-2.352,2.051l2.032,4.765c2.215,1.446,5.309.849,7.523-.2a6.2,6.2,0,0,1,3.058-5.318l3.979-2.433h0a2.453,2.453,0,0,0,1.369-2.236c0-.75-.48-1.382-1.049-1.382a.936.936,0,0,0-.684.343,1.263,1.263,0,0,1-1.9-1.662,3.462,3.462,0,0,1,2.468-1.205,10.164,10.164,0,0,0-2.373-4.469,1.263,1.263,0,0,1,1.871-1.7,12.841,12.841,0,0,1,3.262,7.442,4.1,4.1,0,0,1,.933,2.63,5.121,5.121,0,0,1-.2,1.43,5.754,5.754,0,0,1,4.537,3.292c1.787,3.856,2.137,10.791,2.137,21.465a1.263,1.263,0,0,1-2.526,0c0-3.328-.024-6.675-.168-9.734h-8.345a6.2,6.2,0,0,1-5.875-3.918,11.69,11.69,0,0,1-6.646.883l5.219,12.235a1.263,1.263,0,0,1-2.323.991l-10.673-25.024a10.8,10.8,0,0,0-9.947-6.571,1.263,1.263,0,0,1,0-2.526,13.341,13.341,0,0,1,5.059.993v-5.942c-1.035-.435-1.7-.772-1.78-.813a1.263,1.263,0,0,1,1.15-2.249c.053.027,5.408,2.734,9.767,2.734,2.145,0,3.745-1.931,5.25-6.612a7.531,7.531,0,0,1-4.773-2.771,1.263,1.263,0,1,1,2.054-1.469,5.273,5.273,0,0,0,3.43,1.8q.391-1.467.783-3.2a1.264,1.264,0,0,1,1.179-.984c1.164-.048,2.419-.677,2.419-1.608,0-.427-.4-.883-1.049-1.594a8.455,8.455,0,0,1-2.2-3.525,8.8,8.8,0,0,1-.074-3.939c-1.256-1.013-3.463-1.514-6.008-1.347a1.263,1.263,0,1,1-.165-2.521,12.545,12.545,0,0,1,6.641,1.169c.536-4.174-.116-7.614-1.944-10.292-.848,2.511-2.889,4.389-6.017,5.5a19.118,19.118,0,0,1-4.9.99,24.926,24.926,0,0,1-6.018,9.674,1.231,1.231,0,0,1-.272.219,1.263,1.263,0,0,1-1.64-.3,1.192,1.192,0,0,1-.08-.113,2.536,2.536,0,0,0-2.088-1.146,2.69,2.69,0,0,0-2.582,2.782,4.949,4.949,0,0,0,5.163,5.181,1.263,1.263,0,0,1,0,2.526,7.671,7.671,0,0,1-5.469-2.133,26.5,26.5,0,0,1-4.308,2.944,13.994,13.994,0,0,1,.554,3.909c0,4.146-1.174,8.2-2.383,12.14h5.248a1.263,1.263,0,0,1,0,2.526h-6.022a39.83,39.83,0,0,0-2.123,11.475,47.932,47.932,0,0,0,3.925,19.168,1.263,1.263,0,0,1-1.161,1.758Zm42.661-23.057-3.981,2.433a3.832,3.832,0,0,0,2,7.1h8.192a25.841,25.841,0,0,0-1.582-8.144,3.183,3.183,0,0,0-1.992-1.73,3.252,3.252,0,0,0-2.633.336l0,0Zm-24.644-9.51a13.159,13.159,0,0,1,1.055.81,12.721,12.721,0,0,1,3.312-6.1,25.737,25.737,0,0,1-4.367-1.072Zm-25.128-34.365a8.334,8.334,0,0,0-5.773,2.128,7.527,7.527,0,0,0-2.365,5.577,8.038,8.038,0,0,0,7.145,7.992,13.429,13.429,0,0,0,6.9-1.037,38.859,38.859,0,0,0-1.875-3.47c-1.731-2.969-3.678-6.3-3.954-11.191Zm36.534,48.019a3.4,3.4,0,0,1-.369-.019,1.263,1.263,0,0,1,.267-2.512,2.294,2.294,0,0,0,1.514-.551,1.263,1.263,0,1,1,1.819,1.752,4.76,4.76,0,0,1-3.231,1.329Zm2.745-6.277a3.633,3.633,0,0,1-1.462-.309,1.263,1.263,0,1,1,1.014-2.313,1.118,1.118,0,0,0,1.473-.575,1.263,1.263,0,0,1,2.313,1.014,3.651,3.651,0,0,1-3.338,2.183Zm-5.958-32.126a5.389,5.389,0,0,1-3.924-1.7,1.263,1.263,0,1,1,1.856-1.713,2.808,2.808,0,0,0,2.79.784,1.263,1.263,0,1,1,.743,2.414,4.976,4.976,0,0,1-1.465.217Z" transform="translate(-1067.383 -2767.851)" fill="#00348d"/>
    </g>
  </g>
</svg>
