<svg xmlns="http://www.w3.org/2000/svg" width="120" height="120" viewBox="0 0 120 120">
  <g id="Grupo_53647" data-name="Grupo 53647" transform="translate(-617.887 -4239.489)">
    <rect id="Rectángulo_5765" data-name="Rectángulo 5765" width="120" height="120" transform="translate(617.887 4239.489)" fill="#e7eefa" opacity="0"/>
    <g id="Grupo_53646" data-name="Grupo 53646">
      <g id="Grupo_53626" data-name="Grupo 53626">
        <path id="Trazado_100165" data-name="Trazado 100165" d="M679.022,4338.758l38.473-4.248a52.047,52.047,0,1,0-76.946,0Z" fill="#89ace8"/>
      </g>
      <g id="Grupo_53627" data-name="Grupo 53627">
        <circle id="Elipse_4002" data-name="Elipse 4002" cx="38.238" cy="38.238" r="38.238" transform="translate(640.784 4255.909)" fill="#a1bded"/>
      </g>
      <g id="Grupo_53628" data-name="Grupo 53628">
        <path id="Trazado_100166" data-name="Trazado 100166" d="M683.271,4275.028h-8.5v-28.042a4.249,4.249,0,0,1,8.5,0Z" fill="#e8f8fc"/>
      </g>
      <g id="Grupo_53629" data-name="Grupo 53629">
        <path id="Trazado_100167" data-name="Trazado 100167" d="M679.022,4258.033a4.249,4.249,0,0,1-4.249-4.249v21.244h8.5v-21.244A4.249,4.249,0,0,1,679.022,4258.033Z" fill="#c7e7f3"/>
      </g>
      <g id="Grupo_53630" data-name="Grupo 53630">
        <path id="Trazado_100168" data-name="Trazado 100168" d="M662.027,4275.028a8.5,8.5,0,0,1,8.5-8.5h16.995a8.5,8.5,0,1,1,0,17l-8.5,2.124-8.5-2.124A8.5,8.5,0,0,1,662.027,4275.028Z" fill="#89ace8"/>
      </g>
      <g id="Grupo_53631" data-name="Grupo 53631">
        <path id="Trazado_100169" data-name="Trazado 100169" d="M674.773,4275.028a8.5,8.5,0,0,1,8.5-8.5H670.524a8.5,8.5,0,0,0,0,17l8.5,2.124,4.249-1.062v-1.062A8.5,8.5,0,0,1,674.773,4275.028Z" fill="#6781ae"/>
      </g>
      <g id="Grupo_53632" data-name="Grupo 53632">
        <path id="Trazado_100170" data-name="Trazado 100170" d="M655.654,4292.023a8.5,8.5,0,0,1,8.5-8.5h29.741a8.5,8.5,0,1,1,0,17l-14.87,2.124-14.871-2.124A8.5,8.5,0,0,1,655.654,4292.023Z" fill="#f579a8"/>
      </g>
      <g id="Grupo_53633" data-name="Grupo 53633">
        <path id="Trazado_100171" data-name="Trazado 100171" d="M668.4,4292.023a8.5,8.5,0,0,1,8.5-8.5H664.151a8.5,8.5,0,0,0,0,17l12.747,1.821v-1.821A8.5,8.5,0,0,1,668.4,4292.023Z" fill="#a84269"/>
      </g>
      <g id="Grupo_53634" data-name="Grupo 53634">
        <path id="Trazado_100172" data-name="Trazado 100172" d="M649.281,4309.017a8.5,8.5,0,0,1,8.5-8.5h42.487a8.5,8.5,0,1,1,0,17l-21.243,2.124-21.244-2.124A8.5,8.5,0,0,1,649.281,4309.017Z" fill="#ff8c1a"/>
      </g>
      <g id="Grupo_53635" data-name="Grupo 53635">
        <path id="Trazado_100173" data-name="Trazado 100173" d="M662.027,4309.017a8.5,8.5,0,0,1,8.5-8.5H657.778a8.5,8.5,0,0,0,0,17l12.746,1.274v-1.274A8.5,8.5,0,0,1,662.027,4309.017Z" fill="#bf6914"/>
      </g>
      <g id="Grupo_53636" data-name="Grupo 53636">
        <path id="Trazado_100174" data-name="Trazado 100174" d="M642.908,4326.012a8.5,8.5,0,0,1,8.5-8.5h55.233a8.5,8.5,0,1,1,0,16.995l-27.616,2.124-27.617-2.124A8.5,8.5,0,0,1,642.908,4326.012Z" fill="#00348d"/>
      </g>
      <g id="Grupo_53637" data-name="Grupo 53637">
        <path id="Trazado_100175" data-name="Trazado 100175" d="M655.654,4326.012a8.5,8.5,0,0,1,8.5-8.5H651.405a8.5,8.5,0,0,0,0,16.995l12.746.98v-.98A8.5,8.5,0,0,1,655.654,4326.012Z" fill="#00276a"/>
      </g>
      <g id="Grupo_53638" data-name="Grupo 53638">
        <path id="Trazado_100176" data-name="Trazado 100176" d="M650.517,4343.007a52.061,52.061,0,0,0,57.01,0l-28.505-4.249Z" fill="#c7e7f3"/>
      </g>
      <g id="Grupo_53639" data-name="Grupo 53639">
        <path id="Trazado_100177" data-name="Trazado 100177" d="M674.773,4347.256a4.249,4.249,0,0,1,4.249-4.249v-4.249l-28.5,4.249a51.794,51.794,0,0,0,28.5,8.5A4.248,4.248,0,0,1,674.773,4347.256Z" fill="#a6d6eb"/>
      </g>
      <g id="Grupo_53640" data-name="Grupo 53640">
        <path id="Trazado_100178" data-name="Trazado 100178" d="M640.549,4334.51a52.29,52.29,0,0,0,9.968,8.5h57.01a52.322,52.322,0,0,0,9.968-8.5Z" fill="#e8f8fc"/>
      </g>
      <g id="Grupo_53641" data-name="Grupo 53641">
        <path id="Trazado_100179" data-name="Trazado 100179" d="M670.524,4334.51H640.549a52.29,52.29,0,0,0,9.968,8.5h20.007a4.249,4.249,0,0,1,0-8.5Z" fill="#c7e7f3"/>
      </g>
      <g id="Grupo_53642" data-name="Grupo 53642">
        <path id="Trazado_100180" data-name="Trazado 100180" d="M696.017,4277.152h-33.99a2.125,2.125,0,0,1,0-4.249h33.99a2.125,2.125,0,0,1,0,4.249Z" fill="#b8cdf1"/>
      </g>
      <g id="Grupo_53643" data-name="Grupo 53643">
        <path id="Trazado_100181" data-name="Trazado 100181" d="M702.39,4294.147H655.654a2.125,2.125,0,0,1,0-4.249H702.39a2.125,2.125,0,0,1,0,4.249Z" fill="#f9afcb"/>
      </g>
      <g id="Grupo_53644" data-name="Grupo 53644">
        <path id="Trazado_100182" data-name="Trazado 100182" d="M708.763,4311.142H649.281a2.125,2.125,0,0,1,0-4.249h59.482a2.125,2.125,0,0,1,0,4.249Z" fill="#ffba76"/>
      </g>
      <g id="Grupo_53645" data-name="Grupo 53645">
        <path id="Trazado_100183" data-name="Trazado 100183" d="M715.136,4328.137H642.908a2.125,2.125,0,0,1,0-4.249h72.228a2.125,2.125,0,0,1,0,4.249Z" fill="#6685bb"/>
      </g>
    </g>
  </g>
</svg>
