<svg xmlns="http://www.w3.org/2000/svg" width="120" height="120" viewBox="0 0 120 120">
  <g id="Grupo_53597" data-name="Grupo 53597" transform="translate(-205.874 -3743.72)">
    <rect id="Rectángulo_5756" data-name="Rectángulo 5756" width="120" height="120" transform="translate(205.874 3743.72)" fill="#e7eefa" opacity="0"/>
    <g id="Grupo_53596" data-name="Grupo 53596">
      <path id="Trazado_100122" data-name="Trazado 100122" d="M319.089,3804.348a53.023,53.023,0,0,1-13.952,35.92c-9.729,10.629-23.718.48-39.263.48s-29.534,10.149-39.263-.48a53.215,53.215,0,1,1,92.478-35.92Z" fill="#89ace8"/>
      <g id="Grupo_53594" data-name="Grupo 53594">
        <path id="Trazado_100123" data-name="Trazado 100123" d="M303.881,3769.546v69.466a53.215,53.215,0,0,1-78.526,0v-69.466a10.17,10.17,0,0,1,8.781-10.078,10.293,10.293,0,0,1,1.391-.093H293.71a10.29,10.29,0,0,1,1.39.093,10.178,10.178,0,0,1,8.39,7.282A10.067,10.067,0,0,1,303.881,3769.546Z" fill="#8b5e5e"/>
        <path id="Trazado_100124" data-name="Trazado 100124" d="M239.509,3759.375a10.171,10.171,0,0,0-10.171,10.171v73.382a53.1,53.1,0,0,1-3.983-3.916v-69.466a10.168,10.168,0,0,1,8.779-10.076l0,0a10.293,10.293,0,0,1,1.391-.093Z" fill="#785252"/>
        <path id="Trazado_100125" data-name="Trazado 100125" d="M284.393,3847.785H238.76a7.978,7.978,0,0,1-7.978-7.978v-61.465a7.978,7.978,0,0,1,7.978-7.978h45.633a7.978,7.978,0,0,1,7.978,7.978v61.465A7.978,7.978,0,0,1,284.393,3847.785Z" fill="#785252"/>
        <path id="Trazado_100126" data-name="Trazado 100126" d="M287.435,3847.785H241.8a7.978,7.978,0,0,1-7.978-7.978v-61.465a7.978,7.978,0,0,1,7.978-7.978h45.634a7.978,7.978,0,0,1,7.978,7.978v61.465A7.978,7.978,0,0,1,287.435,3847.785Z" fill="#f9f6f9"/>
        <path id="Trazado_100127" data-name="Trazado 100127" d="M274.035,3785.407h-4.693v-4.693a1.921,1.921,0,0,0-1.92-1.92h-5.608a1.921,1.921,0,0,0-1.92,1.92v4.693H255.2a1.921,1.921,0,0,0-1.92,1.92v5.608a1.92,1.92,0,0,0,1.92,1.92h4.693v4.693a1.921,1.921,0,0,0,1.92,1.92h5.608a1.921,1.921,0,0,0,1.92-1.92v-4.693h4.693a1.92,1.92,0,0,0,1.92-1.92v-5.608A1.921,1.921,0,0,0,274.035,3785.407Z" fill="#f579a8"/>
        <path id="Trazado_100128" data-name="Trazado 100128" d="M282.72,3776.869h-36.2a7.215,7.215,0,0,1-7.207-7.207V3764.5a7.215,7.215,0,0,1,7.207-7.207h36.2a7.215,7.215,0,0,1,7.207,7.207v5.159A7.215,7.215,0,0,1,282.72,3776.869Zm-36.2-15.416a3.054,3.054,0,0,0-3.05,3.05v5.159a3.054,3.054,0,0,0,3.05,3.05h36.2a3.054,3.054,0,0,0,3.05-3.05V3764.5a3.054,3.054,0,0,0-3.05-3.05Z" fill="#f6e266"/>
        <path id="Trazado_100129" data-name="Trazado 100129" d="M278.979,3766.5H250.257a5.824,5.824,0,0,1-5.824-5.823v-3.008a5.823,5.823,0,0,1,5.824-5.823h28.722a5.823,5.823,0,0,1,5.824,5.823v3.008A5.823,5.823,0,0,1,278.979,3766.5Z" fill="#30579d"/>
        <path id="Trazado_100130" data-name="Trazado 100130" d="M258.2,3766.494h-7.941a5.822,5.822,0,0,1-5.823-5.822v-3.008a5.823,5.823,0,0,1,5.823-5.825H258.2a5.824,5.824,0,0,0-5.825,5.825v3.008A5.822,5.822,0,0,0,258.2,3766.494Z" fill="#26457d"/>
        <g id="Grupo_53593" data-name="Grupo 53593">
          <path id="Trazado_100131" data-name="Trazado 100131" d="M285.079,3816a7.171,7.171,0,0,1-5.115-2.14,7.183,7.183,0,0,1-10.23,0,7.184,7.184,0,0,1-10.231,0,7.183,7.183,0,0,1-10.23,0,7.191,7.191,0,0,1-12.309-5.054,2.078,2.078,0,1,1,4.157,0,3.036,3.036,0,1,0,6.073,0,2.079,2.079,0,0,1,4.158,0,3.036,3.036,0,1,0,6.072,0,2.079,2.079,0,0,1,4.158,0,3.036,3.036,0,1,0,6.073,0,2.079,2.079,0,1,1,4.157,0,3.036,3.036,0,1,0,6.073,0,2.079,2.079,0,0,1,4.158,0,3.036,3.036,0,1,0,6.073,0,2.079,2.079,0,1,1,4.157,0A7.2,7.2,0,0,1,285.079,3816Z" fill="#00348d"/>
          <path id="Trazado_100132" data-name="Trazado 100132" d="M285.079,3829.271a7.171,7.171,0,0,1-5.115-2.14,7.183,7.183,0,0,1-10.23,0,7.184,7.184,0,0,1-10.231,0,7.183,7.183,0,0,1-10.23,0,7.191,7.191,0,0,1-12.309-5.054,2.078,2.078,0,1,1,4.157,0,3.036,3.036,0,1,0,6.073,0,2.079,2.079,0,0,1,4.158,0,3.036,3.036,0,1,0,6.072,0,2.079,2.079,0,0,1,4.158,0,3.036,3.036,0,1,0,6.073,0,2.079,2.079,0,1,1,4.157,0,3.036,3.036,0,1,0,6.073,0,2.079,2.079,0,0,1,4.158,0,3.036,3.036,0,1,0,6.073,0,2.079,2.079,0,1,1,4.157,0A7.2,7.2,0,0,1,285.079,3829.271Z" fill="#00348d"/>
        </g>
      </g>
      <g id="Grupo_53595" data-name="Grupo 53595">
        <path id="Trazado_100133" data-name="Trazado 100133" d="M316.473,3811.838l-3.746,3.745-12.365-4.121-4.848-13.093,3.745-3.745a4.645,4.645,0,0,1,6.569,0l10.645,10.644A4.648,4.648,0,0,1,316.473,3811.838Z" fill="#f579a8"/>
        <path id="Trazado_100134" data-name="Trazado 100134" d="M269.509,3835.362l.386-2.282,1.455-8.582a7.528,7.528,0,0,1,2.1-4.066l13.091,4.85,4.123,12.364a7.552,7.552,0,0,1-4.066,2.1l-8.586,1.455-2.278.386a5.4,5.4,0,0,1-6.226-6.226Z" fill="#ffddce"/>
        <path id="Trazado_100135" data-name="Trazado 100135" d="M271.014,3840.083a5.364,5.364,0,0,1-1.505-4.721l.386-2.282,1.455-8.582a7.528,7.528,0,0,1,2.1-4.066l12.559,4.655-6.916.988a18.864,18.864,0,0,0-2.747,3.421l-3.789,6.247-1.008,1.66C270.739,3838.736,270.61,3839.678,271.014,3840.083Z" fill="#ffcbbe"/>
        <path id="Trazado_100136" data-name="Trazado 100136" d="M300.165,3810.932l-4.651-12.563,3.745-3.745a4.645,4.645,0,0,1,6.569,0l3.489,3.489c-.623-.624-2.6.34-4.415,2.154l-3.745,3.746Z" fill="#aa3684"/>
        <path id="Trazado_100137" data-name="Trazado 100137" d="M312.739,3815.583l-22.058,22.059-17.211-17.211,22.058-22.059Z" fill="#f6e266"/>
        <path id="Trazado_100138" data-name="Trazado 100138" d="M286.276,3825.185l-.266-.1.293-.042Z" fill="#f7e2bd"/>
        <path id="Trazado_100139" data-name="Trazado 100139" d="M300.263,3811.2l-.14.027.042-.293Z" fill="#c8646d"/>
        <path id="Trazado_100140" data-name="Trazado 100140" d="M273.438,3820.432l22.059-22.059,5.643,5.642-22.059,22.059Z" fill="#ffd064"/>
        <path id="Trazado_100141" data-name="Trazado 100141" d="M278.015,3841.2l-2.279.386a5.4,5.4,0,0,1-6.226-6.226l.386-2.282,2.279-.387a5.4,5.4,0,0,1,6.228,6.229Z" fill="#00348d"/>
        <path id="Trazado_100142" data-name="Trazado 100142" d="M271.015,3840.082a5.364,5.364,0,0,1-1.505-4.721l.386-2.282,2.279-.387a5.371,5.371,0,0,1,2.187.077l-1.8,2.973-1.008,1.66c-.811,1.333-.94,2.275-.536,2.68Z" fill="#543673"/>
      </g>
    </g>
  </g>
</svg>
